<svg xmlns="http://www.w3.org/2000/svg" width="13.869" height="13.869" viewBox="0 0 13.869 13.869">
  <g id="check-verified" transform="translate(-16 -16)">
    <path id="Path_36" data-name="Path 36" d="M17.562,24.321h-.175a1.387,1.387,0,0,1,0-2.774h.175a5.526,5.526,0,0,1,.594-1.431l-.125-.124a1.387,1.387,0,0,1,1.962-1.961l.123.124a5.514,5.514,0,0,1,1.431-.594v-.175a1.387,1.387,0,1,1,2.774,0v.175a5.526,5.526,0,0,1,1.431.594l.124-.125a1.387,1.387,0,0,1,1.961,1.962l-.124.123a5.5,5.5,0,0,1,.594,1.431h.175a1.387,1.387,0,0,1,0,2.774h-.175a5.514,5.514,0,0,1-.594,1.431l.125.124a1.387,1.387,0,1,1-1.962,1.961l-.123-.124a5.514,5.514,0,0,1-1.431.594v.175a1.387,1.387,0,0,1-2.774,0v-.175a5.514,5.514,0,0,1-1.431-.594l-.124.125a1.387,1.387,0,1,1-1.961-1.962l.124-.123a5.514,5.514,0,0,1-.594-1.431Zm3.293-2.774-1.387,1.387,2.774,2.774L26.4,21.548l-1.387-1.387-2.774,2.774Z" fill="#0d2436" fill-rule="evenodd"/>
  </g>
</svg>
