<svg xmlns="http://www.w3.org/2000/svg" width="11.436" height="21.66" viewBox="0 0 11.436 21.66">
  <path id="Path_20" data-name="Path 20" d="M131.048,77.535l-.274,2.2a.734.734,0,0,1-.727.645h-3.567V89.59q-.565.051-1.143.051a12.73,12.73,0,0,1-2.516-.25v-9.01h-2.744a.459.459,0,0,1-.457-.459V77.167a.46.46,0,0,1,.457-.459h2.744V72.574a4.583,4.583,0,0,1,4.574-4.592h3.2a.46.46,0,0,1,.457.459V71.2a.46.46,0,0,1-.457.459h-2.287a1.833,1.833,0,0,0-1.829,1.837v3.215h3.842a.735.735,0,0,1,.727.827" transform="translate(-119.619 -67.982)" fill="#fff"/>
</svg>
