<svg id="photo" xmlns="http://www.w3.org/2000/svg" width="17.734" height="14.187" viewBox="0 0 17.734 14.187">
  <path id="Path_40" data-name="Path 40" d="M5.911,4.138A1.766,1.766,0,0,1,4.138,5.911,1.766,1.766,0,0,1,2.365,4.138,1.766,1.766,0,0,1,4.138,2.365,1.766,1.766,0,0,1,5.911,4.138Zm9.458,3.547v4.138h-13V10.049L5.32,7.094,6.8,8.571l4.729-4.729Zm.887-6.5H1.478a.3.3,0,0,0-.3.3V12.709a.3.3,0,0,0,.3.3H16.256a.3.3,0,0,0,.3-.3V1.478a.3.3,0,0,0-.3-.3Zm1.478.3V12.709a1.482,1.482,0,0,1-1.478,1.478H1.478a1.423,1.423,0,0,1-1.044-.434A1.423,1.423,0,0,1,0,12.709V1.478A1.423,1.423,0,0,1,.434.434,1.423,1.423,0,0,1,1.478,0H16.256A1.423,1.423,0,0,1,17.3.434,1.423,1.423,0,0,1,17.734,1.478Z" fill="#0d2436"/>
</svg>
