<svg xmlns="http://www.w3.org/2000/svg" width="25.981" height="26" viewBox="0 0 25.981 26">
  <g id="cart" transform="translate(-6.08 -6.08)">
    <path id="Path_332" data-name="Path 332" d="M13.874,10.412v1.732H30.329v3.429l-1.922,6.1H13.329L11.164,6.08H6.08V7.812H9.656L11.821,23.4H29.678l2.383-7.563V10.412Z"/>
    <path id="Path_333" data-name="Path 333" d="M46.4,139.971a3.464,3.464,0,1,0,3.464,3.464A3.468,3.468,0,0,0,46.4,139.971Zm0,5.2a1.732,1.732,0,1,1,1.732-1.732A1.732,1.732,0,0,1,46.4,145.167Z" transform="translate(-31.604 -114.819)"/>
    <path id="Path_334" data-name="Path 334" d="M131.518,139.971a3.464,3.464,0,1,0,3.464,3.464A3.468,3.468,0,0,0,131.518,139.971Zm0,5.2a1.732,1.732,0,1,1,1.732-1.732A1.732,1.732,0,0,1,131.518,145.167Z" transform="translate(-104.6 -114.819)"/>
  </g>
</svg>
