<svg xmlns="http://www.w3.org/2000/svg" width="19.226" height="16" viewBox="0 0 19.226 16">
  <g id="folder" transform="translate(-2.276 -12)">
    <g id="Group_23" data-name="Group 23" transform="translate(2.276 12)">
      <path id="Path_43" data-name="Path 43" d="M2.707,15.532l-.049-1.071A2.462,2.462,0,0,1,5.119,12H9.639a2.461,2.461,0,0,1,1.74.721L12.4,13.74a2.462,2.462,0,0,0,1.74.721h4.9a2.462,2.462,0,0,1,2.452,2.684l-.784,8.615A2.462,2.462,0,0,1,18.256,28H5.52a2.462,2.462,0,0,1-2.45-2.239l-.784-8.615a2.449,2.449,0,0,1,.421-1.612Zm2.031.16a1.231,1.231,0,0,0-1.226,1.342L4.3,25.649a1.231,1.231,0,0,0,1.225,1.12H18.256a1.231,1.231,0,0,0,1.225-1.12l.784-8.615a1.231,1.231,0,0,0-1.226-1.342Zm5.772-2.1a1.231,1.231,0,0,0-.871-.361H5.119a1.231,1.231,0,0,0-1.231,1.208l.007.171a2.451,2.451,0,0,1,.842-.148h6.641l-.87-.87Z" transform="translate(-2.276 -12)"/>
    </g>
  </g>
</svg>
