<svg id="Group_103" data-name="Group 103" xmlns="http://www.w3.org/2000/svg" xmlns:xlink="http://www.w3.org/1999/xlink" width="144.185" height="112.489" viewBox="0 0 144.185 112.489">
  <defs>
    <clipPath id="clip-path">
      <rect id="Rectangle_89" data-name="Rectangle 89" width="144.185" height="112.489" fill="none"/>
    </clipPath>
  </defs>
  <g id="Group_102" data-name="Group 102" clip-path="url(#clip-path)">
    <path id="Path_349" data-name="Path 349" d="M0,68.1a20.055,20.055,0,0,0,13.884-6.86,19.549,19.549,0,0,0,4.455-11.489h2c-.531,4.242-.8,9.7-2.59,15.646a69.892,69.892,0,0,0,9.4,3.337C39.525,49.744,59.739,21.977,79,21.977l0,0c17.5,0,24.689,19.282,24.689,35.544,0,27.748-18.659,37.823-50.7,37.823-17.128,0-33.974-4.242-38.923-16.084a24.555,24.555,0,0,1-8.1,11.1A23.522,23.522,0,0,1,0,93.648v18.842H144.185V16.366H101.448L96.642,0h-49.1L42.737,16.366H0" fill="#fff"/>
    <path id="Path_350" data-name="Path 350" d="M58.278,113.836l0,0c27.966,5.408,70.712.993,70.712-6.96,0-8.837-11.306-16.893-23.814-16.893-7.424,0-29.938,3.437-46.9,23.852" transform="translate(-28.685 -44.293)" fill="#fff"/>
    <rect id="Rectangle_88" data-name="Rectangle 88" width="13.517" height="4.816" transform="translate(121.786 7.624)" fill="#fff"/>
  </g>
</svg>
