<svg xmlns="http://www.w3.org/2000/svg" width="126.663" height="27.253" viewBox="0 0 126.663 27.253">
  <g id="Group_113" data-name="Group 113" transform="translate(21912 -144.998)">
    <circle id="Ellipse_2" data-name="Ellipse 2" cx="13.626" cy="13.626" r="13.626" transform="translate(-21812.59 144.998)" fill="blue"/>
    <path id="Path_18" data-name="Path 18" d="M1050.508,1201.576a8.228,8.228,0,0,0-7.9,7.756,8.144,8.144,0,0,0,.909,4.2l-.914,4.094a.262.262,0,0,0,.311.311l4.094-.914h0a8.134,8.134,0,0,0,4.161.911,8.184,8.184,0,0,0-.664-16.354m.273,14.67a6.44,6.44,0,0,1-3.265-.883q-.135-.076-.263-.161l-2.616.7.7-2.616a6.489,6.489,0,1,1,5.446,2.963" transform="translate(-22849.521 -1051.683)" fill="#fff"/>
    <path id="Path_19" data-name="Path 19" d="M1112.126,1270.1a3.171,3.171,0,0,1-.422.518,1.952,1.952,0,0,1-1.579.566,7.04,7.04,0,0,1-5.789-5.789,1.952,1.952,0,0,1,.566-1.579,3.366,3.366,0,0,1,.518-.425.568.568,0,0,1,.86.286l.43,1.29a.648.648,0,0,1-.088.727l-.343.345a.509.509,0,0,0-.068.637,10.9,10.9,0,0,0,2.631,2.631.509.509,0,0,0,.636-.068l.345-.343a.647.647,0,0,1,.727-.088l1.29.43a.566.566,0,0,1,.283.86" transform="translate(-22907.018 -1109.166)" fill="#fff"/>
    <circle id="Ellipse_3" data-name="Ellipse 3" cx="13.626" cy="13.626" r="13.626" transform="translate(-21912 144.998)" fill="blue"/>
    <path id="Path_20" data-name="Path 20" d="M129.078,75.889l-.227,1.823a.608.608,0,0,1-.6.534H125.3v7.622q-.467.042-.946.042a10.536,10.536,0,0,1-2.083-.207V78.245H120a.38.38,0,0,1-.379-.38V75.584A.38.38,0,0,1,120,75.2h2.271V71.783a3.793,3.793,0,0,1,3.786-3.8H128.7a.38.38,0,0,1,.379.38v2.281a.38.38,0,0,1-.379.38h-1.893a1.517,1.517,0,0,0-1.514,1.521V75.2h3.18a.608.608,0,0,1,.6.684" transform="translate(-22023.416 81.679)" fill="#fff"/>
    <circle id="Ellipse_4" data-name="Ellipse 4" cx="13.626" cy="13.626" r="13.626" transform="translate(-21846.16 144.998)" fill="blue"/>
    <g id="Group_28" data-name="Group 28" transform="translate(-21839.68 151.477)">
      <path id="Path_21" data-name="Path 21" d="M1065.294,94.461H1057.9a3.451,3.451,0,0,0-3.45,3.451v7.394a3.451,3.451,0,0,0,3.45,3.45h7.394a3.451,3.451,0,0,0,3.451-3.45V97.912a3.451,3.451,0,0,0-3.451-3.451m2.218,10.6a2.466,2.466,0,0,1-2.465,2.465h-6.9a2.466,2.466,0,0,1-2.465-2.465v-6.9a2.466,2.466,0,0,1,2.465-2.465h6.9a2.466,2.466,0,0,1,2.465,2.465Z" transform="translate(-1054.449 -94.461)" fill="#fff"/>
      <path id="Path_22" data-name="Path 22" d="M1108.558,144.771a3.7,3.7,0,1,0,3.7,3.7,3.7,3.7,0,0,0-3.7-3.7m0,6.162a2.465,2.465,0,1,1,2.465-2.465,2.469,2.469,0,0,1-2.465,2.465" transform="translate(-1101.403 -141.321)" fill="#fff"/>
      <path id="Path_23" data-name="Path 23" d="M1206.219,131.876a.739.739,0,1,1,.739-.739.74.74,0,0,1-.739.739" transform="translate(-1195.122 -127.932)" fill="#fff"/>
    </g>
    <circle id="Ellipse_5" data-name="Ellipse 5" cx="13.626" cy="13.626" r="13.626" transform="translate(-21879.078 144.998)" fill="blue"/>
    <path id="Path_24" data-name="Path 24" d="M572.27,100.357l5.512-5.9h-2.093l-4.327,4.628-3.313-4.628h-5.725l5.8,8.1-5.8,6.2h2.093l4.61-4.931,3.53,4.931h5.725Zm-7-4.38h2l8.063,11.263h-2Z" transform="translate(-22435.756 57.016)" fill="#fff"/>
  </g>
</svg>
