<svg xmlns="http://www.w3.org/2000/svg" xmlns:xlink="http://www.w3.org/1999/xlink" width="2386.947" height="1733.921" viewBox="0 0 2386.947 1733.921">
  <defs>
    <clipPath id="clip-path">
      <rect id="Rectangle_50" data-name="Rectangle 50" width="2386.947" height="1733.921" fill="blue"/>
    </clipPath>
  </defs>
  <g id="Group_33" data-name="Group 33" opacity="0.926">
    <g id="Group_33-2" data-name="Group 33" clip-path="url(#clip-path)">
      <path id="Path_89" data-name="Path 89" d="M2386.947,1733.927H4.12l-.017-2.016C0,1240.184,0,738.8,0,253.92V251.9H2.171c113.151-.016,237.271-.064,361.2-.112,118.9-.048,237.605-.088,346.277-.1L788.926,0h813.2l79.276,251.68h705.547ZM8.437,1729.871H2382.6V255.736H1678.147L1598.871,4.055H792.179L712.9,255.736h-1.631c-109.1.016-228.405.056-347.9.1-123.133.048-246.463.1-359.03.112,0,483.583.009,983.527,4.094,1473.919" transform="translate(0 -0.007)" fill="blue"/>
      <path id="Path_90" data-name="Path 90" d="M1170.786,1710.829c-34,0-53.8-.016-54.593-.032-.506-.008-11.372-.016-30.579-.032-88.571-.088-358.112-.336-604.987-1.329-139.74-.56-250.29-1.272-328.58-2.112-145.018-1.56-145.516-2.952-146.271-5.049l-.112-.624C1.451,1248.08.644,777.69,3.21,263.6l.009-2.04,2.189.024c79.662.744,162.14,1,249.458,1.28q41.492.132,83.4.28c132.805-1.568,253.878-3.112,360.017-4.577,3.021-8.929,20.358-63.246,37.162-115.9C774.963,18.833,776.877,13.128,777.417,12.456l.644-.8,1.073-.008C1059.008,8.28,1311.8,5.3,1571.287,2.735l1.614-.016.48,1.44q39.793,119.664,79.645,239.567c48.766-2.8,684.057-3.888,690.691-3.888,3.33,0,5.338,0,8.154,151.095,1.476,79.3,2.849,189.883,4.076,328.656,2.171,244.84,3.081,482.447,3.081,483.807,0,4.944-.961,495.68-4.154,499.448-1.613,1.9-4.591,5.417-620.177,7.193-228.654.656-461.119.792-563.911.792M10,1700.107c26.468,3.585,416.593,5.985,1075.615,6.6,21.533.016,30.288.024,30.682.032,11.312.248,1191.246.048,1234.914-6.713,2.163-25.89,3.468-474.1,3.468-496.632,0-49.445-4.137-922.434-12.393-959.5-34.759.064-669.467,1.536-689.979,3.664l-2.077,1.456-.91-2.752Q1609.488,126.4,1569.708,6.8c-258.444,2.56-510.3,5.537-788.986,8.881-3.279,9.609-23.31,72.375-41.11,128.14C703.823,255.944,702.1,261.112,701.634,261.728l-.635.856-1.116.016c-106.508,1.472-228.113,3.016-361.433,4.592q-42.148-.156-83.6-.272c-86.528-.272-168.3-.536-247.3-1.264C5,778.354,5.8,1247.624,10,1700.107" transform="translate(13.251 19.035)" fill="blue"/>
      <path id="Path_91" data-name="Path 91" d="M1162.01,1687.737c-36.7,0-58.4-.04-59.991-.072-.721-.016-11.441-.032-29.2-.064C12.483,1685.649,8.93,1675.744,7.6,1672.016l-.112-.616C2.4,1176.168,2.133,718.843,6.682,273.28l.017-2.048,2.2.04c78.367,1.5,158.475,2.04,243.3,2.616q41.569.276,83.628.6c131.483-3.136,249.673-6.177,351.4-9.041,2.755-7.593,20.169-61.43,37.05-113.6C757.879,47.97,765.337,25.288,766.29,24.1l.635-.784,1.047-.024c263.181-6.473,520.44-12.705,774.37-17.826l1.605-.032.506,1.424q40.127,114.071,80.358,228.622c47.95-4.92,671.638-7.489,678.118-7.489,4.823,0,13.809,0,22.289,469.8,4.265,236.271,6.154,471.206,6.154,479.935,0,4.856-2.189,488.143-7.845,494.816-2.334,2.752-8.531,10.073-611.6,13.6-225.332,1.32-446.786,1.592-549.921,1.592M11.823,1670.264c22.332,7.249,407.873,12.082,1061.007,13.282,18.392.032,28.52.056,29.283.072,11.492.256,1183.762.216,1217.878-13.634,4.377-19.994,7.029-469.909,7.029-492.255,0-48.869-8.3-916.849-24.889-945.676-37.334.056-658.962,3.144-677.8,7.361l-2.18,1.528-.953-2.7q-40.23-114.611-80.375-228.686c-252.942,5.1-509.232,11.313-771.366,17.754-2.952,8.025-23.13,70.391-41.024,125.716-30.4,93.953-37.145,114.475-37.969,115.571l-.618.832-1.09.032c-102.054,2.872-220.732,5.929-352.739,9.073-28.253-.216-56.147-.408-83.859-.592-84.04-.576-163.462-1.112-241.15-2.576-4.523,444.571-4.248,900.872.815,1394.9" transform="translate(26.232 38.07)" fill="blue"/>
      <path id="Path_92" data-name="Path 92" d="M1162.021,1664.638c-45.187,0-72.41-.056-74.135-.1-1.09-.024-11.192-.048-28.648-.1-85.473-.24-345.556-.96-585.358-3.928-459.711-5.689-463-14.849-464.4-18.762l-.112-.616c-5.87-516.882-5.6-948.452.832-1358.172l.026-2.064,2.223.064c77.774,2.248,156.312,3.08,239.442,3.96q40.5.42,81.525.9c129.072-4.7,244.343-9.249,342.715-13.5,2.961-7.545,20.246-60.222,36.99-111.243,30.356-92.529,40.7-123.62,42.1-125.34l.618-.768,1.021-.04c256.7-9.7,507.722-19.034,756.579-26.739l1.605-.048.523,1.408q40.475,108.49,81.07,217.7c47.315-7.137,659.236-11.105,665.553-11.105,5.879,0,19.654,0,32.347,459.837,6.531,236.575,9.234,466.789,9.234,476.062,0,4.769-3.407,480.583-11.534,490.183-17.26,20.386-870.5,22.394-1130.217,22.394M13.713,1640.323c9.363,5.368,133.646,17.53,1045.533,20.066,17.508.048,27.644.08,28.734.1,57.648,1.2,1177.832-.144,1200.876-20.794,6.514-13.321,10.565-465.413,10.565-487.639,0-85.976-13.406-915.913-37.652-931.938-27.137.088-649.3,4.784-665.467,11.193l-2.386,1.672-.773-2.752Q1552.489,120.868,1512,12.3c-247.913,7.681-497.963,16.986-753.643,26.643-3.218,8.009-23.276,69.127-41.076,123.332-27.842,84.9-36.724,111.587-37.917,113.187l-.618.816-1.064.048c-98.681,4.264-214.433,8.825-344.037,13.561-27.618-.336-54.79-.624-81.782-.912-82.392-.872-160.235-1.688-237.348-3.9-6.385,408.88-6.643,839.577-.8,1355.244" transform="translate(39.164 57.105)" fill="blue"/>
      <path id="Path_93" data-name="Path 93" d="M1140.858,1641.514c-40.981,0-65.458-.064-67.081-.1-1.407-.032-11.131-.072-27.67-.128-83.919-.312-339.308-1.256-575.557-5.208-453.086-7.569-457.514-19.93-459.179-24.578l-.112-.624C4.694,1084.587,5.467,678.028,13.74,292.646l.051-2.072,2.214.08c77.1,3.008,153.935,4.12,235.28,5.3q39.587.576,79.757,1.224l39.411-2.04c99.067-5.137,201.508-10.441,294.619-15.93,3.21-7.625,21.1-61.326,36.956-108.963C729.243,88.507,742.271,49.735,744.159,47.4l.6-.752,1.013-.056c249.8-12.889,494.273-25.322,738.8-35.643l1.588-.072.549,1.392q40.8,102.922,81.791,206.8c46.9-9.473,646.809-14.753,652.963-14.753,6.986,0,25.525,0,42.415,449.892,8.368,222.854,12.307,455.46,12.307,472.182,0,4.672-4.5,472.878-15.226,485.543-22.966,27.13-872.3,29.579-1120.1,29.579M15.6,1610.342c6.48,6.993,121.6,23.522,1030.523,26.89,16.581.064,26.331.1,27.747.128,47.255.984,1159.792.264,1183.668-27.931,8.8-13.785,14.3-442.7,14.3-483.039,0-16.706-3.948-249.232-12.307-472.046-15.543-413.808-33.068-445.971-38.072-445.971-26.949,0-636.278,6.265-653.083,14.825l-2.334,1.64-.936-2.608Q1524.053,118.1,1483.178,15.059C1239.6,25.348,996.1,37.734,747.266,50.575c-3.484,7.961-23.413,67.807-41.084,120.876-25.121,75.431-36.3,108.715-37.909,110.875l-.6.8-1.047.064c-93.463,5.513-196.393,10.841-295.932,16l-39.411,2.04c-27.1-.448-53.683-.84-80.066-1.224-80.6-1.168-156.759-2.272-233.168-5.216C9.809,679.412,9.054,1085.259,15.6,1610.342" transform="translate(52.079 76.133)" fill="blue"/>
      <path id="Path_94" data-name="Path 94" d="M1101.723,1618.366c-25.756,0-40.767-.048-42.011-.072-1.725-.032-11.192-.08-27.018-.152-82.46-.384-333.386-1.552-565.911-6.481C20.813,1602.2,15.355,1586.979,13.3,1581.242l-.112-.616c-5.107-373.276-8.6-817.056,4.128-1278.3l.06-2.08,2.231.1c76.315,3.76,151.352,5.16,230.791,6.641q38.827.732,78.306,1.544L368.8,305.87c95.858-6.369,194.951-12.953,285.247-19.762,3.407-7.545,21.173-60.1,36.93-106.714,24.649-72.911,39.78-117.4,42.157-120.34l.6-.744.987-.064c242.746-16.066,480.541-31.571,721-44.564l1.579-.088.575,1.368Q1499,112.34,1540.39,210.917c46.783-11.841,634.39-18.434,640.389-18.434,7.767,0,31.412,0,52.465,439.923,10.659,222.694,15.4,450.6,15.4,468.318,0,4.584-5.588,465.181-18.916,480.911-28.872,34.1-921.972,36.732-1128,36.732M17.535,1580.187c4.18,7.168,92.854,29.61,1015.186,33.9,15.869.072,25.361.12,27.086.152,51.409,1.056,1136.576.24,1166.5-35.115,11.08-13.754,17.981-438.458,17.981-478.4,0-17.706-4.729-245.5-15.389-468.142-18.839-393.558-39.934-436.042-48.122-436.042-26.4,0-623.456,7.849-640.346,18.57l-2.248,1.44-1.073-2.32q-41.466-98.878-82.709-196.411C1214.909,30.772,978,46.205,736.222,62.215c-3.742,7.889-23.542,66.462-41.093,118.4-24.28,71.839-35.935,105.962-37.9,108.587l-.592.784-1.021.072C564.976,296.9,465.4,303.518,369.107,309.919l-40.14,2.664c-26.692-.568-52.774-1.056-78.658-1.536-78.693-1.472-153.077-2.864-228.7-6.537-12.651,460.253-9.166,903.1-4.077,1275.676" transform="translate(64.951 95.169)" fill="blue"/>
      <path id="Path_95" data-name="Path 95" d="M1102.229,1595.275c-34.682,0-55.219-.08-56.661-.112-2.017-.04-11.123-.088-26.1-.176-80.941-.448-327.258-1.824-556.187-7.729C24.091,1575.92,17.363,1557.15,15.157,1550.982l-.112-.616c-5.493-367.212-9.1-801.5,5.776-1238.36l.077-2.1,2.24.136c75.663,4.5,149.035,6.193,226.714,7.985q37.874.864,76.444,1.856l38.87-3.192c93.266-7.641,189.715-15.537,277.772-23.706,3.6-7.441,21.242-58.846,36.9-104.442,24.374-71,39.385-114.355,42.183-117.843l.592-.728.961-.08c235.915-19.234,467.212-37.8,703.23-53.477l1.553-.1.6,1.344c32.012,70.9,58.5,129.789,83.241,185.122,46.946-14.217,621.98-22.138,627.808-22.138,9.235,0,37.325.008,62.531,429.962,12.908,220.245,18.47,443.979,18.47,464.453,0,4.5-6.677,457.468-22.606,476.278-34.45,40.684-868.812,43.94-1096.179,43.94M19.388,1549.95c5.39,10.881,115.7,36.052,1000.106,40.98,15.019.088,24.151.144,26.159.185,18.658.392,293.718.8,575.394-4.569,251.312-4.793,554.9-15.226,573.953-37.724,13.646-16.121,21.662-432.946,21.662-473.766,0-20.458-5.553-244.064-18.46-464.229-21.74-370.764-45.788-426.129-58.189-426.129-26.5,0-608.8,9.121-627.662,22.37l-2.24,1.568-1.081-2.408C1484.2,150.7,1457.663,91.672,1425.556,20.569,1190.483,36.195,960.078,54.685,725.1,73.847c-4.025,7.937-24.52,67.615-41.119,115.931-21.971,63.99-35.488,103.074-37.883,106.282l-.575.76-1,.1c-88.4,8.209-185.278,16.146-278.982,23.818l-38.973,3.192c-26.142-.68-51.581-1.264-76.83-1.848-76.95-1.768-149.687-3.44-224.638-7.857-14.8,435.946-11.192,869.212-5.716,1235.728" transform="translate(77.903 114.204)" fill="blue"/>
      <path id="Path_96" data-name="Path 96" d="M1074.367,1572.12c-26.3,0-41.625-.064-42.852-.087-2.274-.048-11.037-.1-25.2-.2-443.954-2.88-975.955-14.1-989.206-51.117l-.112-.608c-6.171-377.341-9.535-783.7,7.432-1198.437l.086-2.1,2.249.152c75.011,5.265,146.717,7.241,222.629,9.329,24.615.68,49.426,1.368,74.582,2.168l37.205-3.664c90.862-8.921,184.789-18.146,270.742-27.691,3.776-7.329,21.31-57.565,36.862-102.122,23.421-67.11,39.016-111.395,42.251-115.4l.567-.7.944-.1c219.917-21.49,453.987-44,685.439-62.39l1.536-.12.626,1.3c32.373,66.83,59.09,122.292,83.971,174.321,47.452-16.61,609.561-25.867,615.234-25.867,43.256.016,65.33,316.127,72.582,420.009,14.625,209.308,21.551,430.49,21.551,460.581,0,26.547-8.454,450.58-26.288,471.638-40.38,47.685-890.431,51.1-1092.831,51.1M21.341,1519.691c5.879,12.786,115.4,42.428,985,48.093,14.2.1,22.984.144,25.267.192,67.286,1.4,1090.154.152,1132.173-49.461,15.972-18.874,25.353-429.138,25.353-469.134,0-30.059-6.927-251.1-21.534-460.317-25.284-362.139-53.615-416.216-68.248-416.216-25.7,0-592.928,10.665-614.994,26.163l-2.189,1.528-1.107-2.32c-24.984-52.237-51.769-107.851-84.245-174.905-230.525,18.33-463.642,40.748-682.744,62.158C709.818,93.288,689.426,151.7,672.922,199c-21.714,62.19-35.085,100.218-37.857,103.914l-.558.744-.97.112c-86.28,9.593-180.644,18.858-271.9,27.819l-37.814,3.688c-25.147-.808-49.95-1.488-74.556-2.168-75.208-2.072-146.28-4.032-220.578-9.185-16.856,413.784-13.5,819.223-7.347,1195.764" transform="translate(90.755 133.246)" fill="blue"/>
      <path id="Path_97" data-name="Path 97" d="M1074.2,1549.035c-34.708,0-55.323-.1-56.747-.128-2.515-.056-10.934-.112-24.306-.216-77.946-.576-315.14-2.344-536.816-10.193-105.238-3.729-425.467-15.073-437.277-48.036l-.112-.608C11.368,1065,10.012,705.4,28.027,331.349l.1-2.1,2.257.176c74.3,6.033,144.271,8.289,218.347,10.673,24.039.776,48.285,1.56,72.925,2.5l37.094-4.312c87.893-10.153,178.773-20.658,262.143-31.523,4.034-7.409,21.422-56.413,36.845-99.85C680.9,141.659,696.369,98.55,700.034,94l.549-.7.918-.1C914.939,68.7,1142.3,43.009,1369.157,21.9l1.5-.152.669,1.272c32.158,61.662,59.116,113.691,84.709,163.552,47.083-18.45,576.432-29.619,602.652-29.619,32.656.008,60.463,137.973,82.64,410.04,16.994,208.42,24.623,425,24.623,456.716,0,26-9.629,442.979-29.978,467.005-45.831,54.133-840.4,58.318-1061.771,58.318M23.289,1489.445c12.977,30.595,366.231,50.709,969.9,55.189,13.406.1,21.851.168,24.366.216,81.4,1.68,1066.423.736,1115.008-56.637,18.71-22.09,29.052-423.729,29.052-464.5,0-96.057-34.355-862.692-102.921-862.692-45.5,0-577.231,12.329-602.326,29.947l-2.129,1.488-1.141-2.224c-25.713-50.093-52.739-102.282-85.009-164.168C1142.125,47.129,915.711,72.692,703.063,97.1c-4.523,7.809-23.962,62.558-41.2,111.067-21.448,60.438-34.708,97.434-37.84,101.626l-.541.712-.944.12c-83.688,10.929-174.979,21.474-263.259,31.667l-37.806,4.336c-24.623-.92-48.86-1.7-72.9-2.472-73.389-2.384-142.744-4.616-216.3-10.513-17.9,373.092-16.547,731.959-8.986,1155.8" transform="translate(103.611 152.274)" fill="blue"/>
      <path id="Path_98" data-name="Path 98" d="M1044.5,1525.873c-25.224,0-39.934-.072-41.11-.1-2.747-.056-10.874-.128-23.559-.232-775.477-6.489-949.453-39.116-958.85-65.35l-.112-.608C14.4,1127.106,9.367,739.053,31.6,341.022l.12-2.12,2.257.208c73.689,6.785,142.031,9.329,214.373,12.025,23.379.872,46.955,1.752,70.96,2.792l35.325-4.76c85.507-11.441,173.907-23.282,255.208-35.531,4.24-7.417,20.8-53.229,36.827-97.585,22.906-63.39,38.235-105.33,42.32-110.411l.549-.672.893-.12C897.171,77.38,1117.646,48.561,1340.3,24.623l1.485-.152.687,1.232c31.7,56.173,59.674,106.186,85.456,152.8,48.01-20.8,564.649-33.387,590.07-33.387,36.63.008,67.819,134.613,92.7,400.079,19.07,203.468,27.7,416.225,27.7,452.844,0,26.531-10.333,434.818-33.669,462.373-51.9,61.294-866.305,65.463-1060.235,65.463M25.21,1459.186c14.187,34.643,361.914,57.342,954.654,62.31,12.719.1,20.873.176,23.61.224,86.838,1.792,1043.079.857,1097.843-63.814,20.341-24.026,32.734-403.367,32.734-459.869,0-98.393-37.2-848.85-116.052-848.866-44.02,0-561.379,13.9-589.658,33.747l-2.06,1.448-1.184-2.136c-25.876-46.8-53.941-96.993-85.773-153.415C1117.569,52.674,898,81.365,692.025,108.727c-4.858,7.977-24.143,61.342-41.23,108.619-21.2,58.67-34.321,94.633-37.823,99.3l-.532.712-.9.128c-81.611,12.313-170.414,24.2-256.281,35.7l-35.84,4.8-.386-.016c-23.919-1.032-47.487-1.912-70.848-2.776-71.672-2.68-139.4-5.2-212.356-11.841C13.735,740.389,18.756,1127.426,25.21,1459.186" transform="translate(116.495 171.316)" fill="blue"/>
      <path id="Path_99" data-name="Path 99" d="M1036.322,1502.773c-28.846,0-45.8-.1-47.049-.12-2.935-.056-10.728-.136-22.649-.248C205.531,1495.34,33.315,1459.1,22.87,1429.942l-.112-.608C15.935,1107.487,10.7,732.17,35.143,350.7l.137-2.128,2.266.232c73,7.537,139.62,10.377,210.15,13.369,22.778.968,45.779,1.944,69.243,3.1l34.356-5.3c82.829-12.705,168.474-25.842,247.458-39.452,4.523-7.577,20.933-52.157,36.819-95.313,22.658-61.542,37.849-102.3,42.372-107.922l.523-.648.867-.136c200.255-30.435,414.018-62.382,632.082-89.137l1.442-.176.721,1.184c31.944,52.069,60.155,98.57,86.211,142.078,49.212-23.162,552.866-37.18,577.48-37.18,97.814.024,133.543,773.987,133.543,839.1,0,46.06-12.47,428.354-37.359,457.74-57.451,67.855-836.009,72.663-1037.131,72.663M27.1,1428.934c15.457,38.724,357.709,64.022,939.566,69.422,11.947.1,19.757.184,22.7.24,97.651,2.016,1020.894-.4,1080.67-70.991,22.846-26.979,36.424-392.926,36.424-455.236,0-96.785-41.41-835.017-129.192-835.041-42.552,0-545.528,15.473-576.982,37.556l-1.991,1.392-1.21-2.032c-26.151-43.692-54.473-90.377-86.554-142.678-217.153,26.667-430.05,58.478-629.567,88.793-5.209,8.177-24.34,60.15-41.273,106.17-18.066,49.069-33.669,91.457-37.814,96.985l-.515.68-.875.152C521.2,338.02,435.18,351.205,352,363.967l-34.948,5.368-.421-.016c-23.379-1.152-46.362-2.128-69.132-3.1-69.87-2.968-135.912-5.777-208.151-13.153C15.077,733.53,20.3,1107.831,27.1,1428.934" transform="translate(129.409 190.351)" fill="blue"/>
      <path id="Path_100" data-name="Path 100" d="M1031.043,1479.691c-34.107,0-54.387-.144-55.76-.168-3.115-.064-10.608-.144-21.834-.256-73.586-.752-297.494-3.041-508.082-13.786C177.1,1451.8,35.631,1429.654,24.886,1399.675l-.112-.6c-7.51-324.936-12.616-672.793,14.032-1038.709l.154-2.136,2.283.264c72.359,8.3,137.311,11.417,206.091,14.722,22.134,1.064,44.491,2.136,67.355,3.4l33.454-5.873c80.143-13.961,163-28.395,239.631-43.34,4.823-7.777,21.07-51.077,36.8-93,19.079-50.837,37.093-98.85,42.432-105.474l.506-.632.833-.144c185.253-31.907,400.775-68.431,614.3-98.05l1.407-.192.755,1.12c31.97,47.637,60.429,90.625,86.958,131.365,51.169-26.115,540.163-40.964,564.9-40.964,107.444.016,146.692,761.226,146.692,825.264,0,46.9-13.157,420.161-41.05,453.108-62.884,74.255-800.624,79.888-1011.264,79.888M29.117,1398.667c16.736,42.828,353.469,70.719,924.374,76.543,11.26.112,18.77.192,21.885.256,116.4,2.384,997.746-.512,1063.514-78.176,25.653-30.3,40.115-387.357,40.115-450.6,0-99.089-43.745-821.192-142.34-821.216-42.6,0-528.843,16.45-564.306,41.348l-1.922,1.352-1.245-1.92c-26.64-40.924-55.2-84.1-87.309-131.949-212.656,29.523-427.235,65.878-611.844,97.673-5.579,8.417-24.555,58.99-41.351,103.762-17.1,45.548-33.24,88.577-37.78,94.625l-.5.664-.841.16c-76.933,15.017-160.149,29.515-240.627,43.532L314.8,380.68l-.438-.016c-22.786-1.264-45.127-2.336-67.252-3.4-68.136-3.272-132.522-6.361-204.125-14.489C16.544,727.626,21.624,1074.539,29.117,1398.667" transform="translate(142.198 209.393)" fill="blue"/>
      <path id="Path_101" data-name="Path 101" d="M1012.423,1456.559c-31.386,0-49.95-.144-51.238-.168-3.253-.064-10.4-.144-20.907-.264-72.127-.8-291.607-3.232-498.53-14.929-263.628-14.914-403.239-39.06-414.962-71.783l-.112-.6C18.8,1055.952,13.509,721.128,42.355,370.038l.18-2.144,2.283.288c71.732,9.065,135.028,12.473,202.04,16.082,21.422,1.152,43.058,2.32,65.244,3.688l32.562-6.4c77.517-15.225,157.668-30.963,232.027-47.261,5.124-8.009,21.216-50.045,36.793-90.729,18.856-49.261,36.673-95.785,42.466-102.986l.5-.616.8-.152C836.319,105.1,1044.865,65.352,1253.77,32.845l1.365-.216.781,1.064c32.012,43.292,60.721,82.792,87.713,120.676,51.435-27.635,510.116-44.78,552.324-44.78,48.68.008,90.022,124.556,122.875,370.188,25.953,194.051,36.948,394.27,36.948,441.243,0,45.86-14.341,412.584-44.74,448.475-68.686,81.12-797.208,87.065-998.613,87.065M31.018,1368.407c18.075,46.973,349.341,77.456,909.312,83.672,10.522.112,17.688.192,20.95.256,119.288,2.472,974.968-1.064,1046.349-85.352,28.013-33.083,43.8-384.125,43.8-445.963,0-46.893-10.977-246.872-36.913-440.739-32.081-239.847-73.071-366.636-118.558-366.644-41.084,0-512.914,17.962-551.637,45.148l-1.845,1.3-1.279-1.792c-27.1-38.068-55.923-77.736-88.073-121.236-208.022,32.4-415.683,71.975-594.13,106.562-5.956,8.7-24.76,57.83-41.41,101.306-16.873,44.092-32.82,85.744-37.746,92.313l-.481.64-.807.176c-74.65,16.378-155.145,32.179-232.988,47.469l-33.111,6.513-.455-.024c-22.2-1.376-43.9-2.544-65.381-3.7-66.385-3.568-129.132-6.953-200.092-15.825-28.631,350-23.361,683.89-15.5,995.921" transform="translate(155.102 228.428)" fill="blue"/>
      <path id="Path_102" data-name="Path 102" d="M995.845,1433.429c-29.884,0-47.513-.144-48.757-.168-3.373-.072-10.213-.152-20.049-.272-70.711-.848-285.865-3.425-489.055-16.074-258.873-16.122-396.579-42.284-409.289-77.768l-.112-.592C20.327,1038.094,14.86,716.575,45.92,379.7l.2-2.144,2.283.312C119.455,387.7,181.06,391.391,246.269,395.3c20.555,1.232,41.814,2.5,63.424,3.984l31.043-6.833c75.054-16.522,152.648-33.6,224.869-51.285,5.433-8.265,21.37-49,36.785-88.441,18.641-47.693,36.252-92.737,42.517-100.514l.472-.592.772-.168C860.456,105,1040.885,67.52,1224.893,35.581l1.313-.232.807.992c32.038,39,61,75,88.477,110.011,53.2-29.995,499.053-48.613,539.76-48.613,123.107.024,172.954,683.914,172.954,797.605,0,65.3-16.255,405.855-48.422,443.843-74.453,87.921-789.072,94.241-983.937,94.241M32.926,1338.14c19.456,51.133,345.221,84.216,894.164,90.793,9.861.12,16.71.2,20.091.272,145.267,3.016,951.932-1.3,1029.183-92.529,30.966-36.563,47.487-378.628,47.487-441.331,0-108.706-50.723-793.525-168.6-793.549-39.557,0-496.994,19.466-538.97,48.941l-1.768,1.232-1.3-1.656c-27.6-35.179-56.67-71.343-88.837-110.523C1041.134,71.624,861.323,108.98,647.946,155.233c-6.334,9.009-24.975,56.693-41.47,98.89-16.667,42.62-32.407,82.88-37.72,89.969l-.455.616-.772.184c-72.5,17.77-150.433,34.923-225.8,51.509L310.1,403.369l-.481-.016c-21.654-1.488-42.99-2.768-63.622-4.008-64.609-3.872-125.673-7.529-195.938-17.146-30.8,335.753-25.37,656.336-17.131,955.941" transform="translate(167.998 247.47)" fill="blue"/>
      <path id="Path_103" data-name="Path 103" d="M999.125,1410.546c-33.334,0-56.559-.224-66.128-.424-3.459-.073-9.956-.152-19.087-.273-317.843-4.072-855.234-22.61-883.3-100.97l-.112-.592c-8.634-287.764-14.29-595.754,18.976-918.921l.223-2.152,2.292.344c70.436,10.593,130.376,14.577,193.835,18.794,19.911,1.32,40.492,2.688,61.485,4.272l30.3-7.449c72.316-17.754,147.078-36.116,216.913-55.125,5.75-8.553,21.508-47.981,36.759-86.136,17.628-44.1,35.849-89.7,42.578-98.057l.464-.568.738-.184c178.833-43.148,370.556-88.129,560.95-124.788l1.253-.248.832.9c32.322,35.059,61.536,67.575,89.258,99.362,55.992-33.067,486.411-52.445,527.187-52.445,31.051.008,59.914,36.227,85.782,107.658,21.173,58.438,40.415,140.062,57.21,242.6,28.7,175.3,43.1,372.42,43.1,433.522,0,63.774-17.5,398.319-52.113,439.2-37.308,44.06-208.433,74.535-508.623,90.585-173.8,9.3-347.135,11.089-440.778,11.089M34.841,1307.872c20.83,55.341,341.127,91.025,879.128,97.922,9.149.12,15.654.2,19.122.272,149.97,3.1,929.06-1.745,1012.018-99.706,34-40.148,51.177-373.148,51.177-436.69,0-60.99-14.384-257.809-43.058-432.906-37.145-226.878-85.1-346.81-138.684-346.818-56.181,0-481.6,21.354-526.3,52.733l-1.673,1.176-1.322-1.512c-27.833-31.947-57.15-64.606-89.609-99.818-189.6,36.548-380.555,81.344-558.718,124.324-6.737,9.353-25.215,55.581-41.556,96.481-16.444,41.148-31.978,80.016-37.677,87.617l-.438.592-.738.192c-70.11,19.106-145.181,37.54-217.789,55.373L307.446,414.7c-21.259-1.6-41.934-2.976-61.931-4.3-62.875-4.176-122.283-8.121-191.93-18.49C20.6,713.951,26.225,1020.956,34.841,1307.872" transform="translate(180.896 266.513)" fill="blue"/>
      <path id="Path_104" data-name="Path 104" d="M983.269,1387.3c-39.256,0-62.935-.3-64.351-.328-3.519-.072-9.664-.16-18.118-.272-311.337-4.249-838.129-23.938-868.271-108.1l-.112-.584C23.4,1003.156,17.561,708.863,53.041,399.017l.249-2.152,2.292.376c69.836,11.369,128.136,15.634,189.853,20.154,19.25,1.416,39.153,2.872,59.511,4.56l29.61-8.089c69.561-18.986,141.473-38.62,208.889-58.934,6.076-8.865,21.671-46.973,36.75-83.856,17.422-42.6,35.437-86.648,42.638-95.585l.438-.544.7-.184C796.188,128.695,981.184,80.61,1167.14,41.046l1.193-.256.849.816c32.365,30.859,61.837,59.9,90.039,88.721,56.387-34.275,459.042-56.286,514.622-56.286,144.305.024,199.233,655.72,199.233,769.947,0,70.391-18.6,390.63-55.8,434.57-85.026,100.41-726.609,108.747-934,108.747M36.752,1277.6c22.263,59.582,337.093,97.866,864.108,105.05,8.471.12,14.625.208,18.144.272,47.435.992,270.949,1.928,497.955-11.409,286.448-16.834,458.269-49.853,496.9-95.465,34.9-41.212,54.868-353.427,54.868-432.058,0-109.17-56.164-765.866-194.882-765.9-53.932,0-465.71,22.89-513.626,56.534l-1.579,1.112-1.339-1.368c-28.322-28.963-57.889-58.118-90.382-89.121C981.733,84.69,797.476,132.567,625.9,178.459c-7.124,9.657-24.666,52.557-41.642,94.065C568.032,312.2,552.7,349.684,546.61,357.8l-.42.56-.687.208c-67.681,20.41-139.894,40.124-209.721,59.182l-30.382,8.3-.541-.032c-20.426-1.7-40.432-3.168-59.768-4.577-61.142-4.48-118.944-8.713-187.973-19.842-35.162,308.686-29.352,601.986-20.366,876" transform="translate(193.782 285.562)" fill="blue"/>
      <path id="Path_105" data-name="Path 105" d="M971.082,1364.207c-40.286,0-64.677-.344-66.1-.376-3.553-.072-9.363-.152-17.182-.264-304.806-4.408-820.964-25.242-853.2-115.243l-.1-.576C24.7,975.1,19.038,705.759,56.766,408.666l.266-2.16,2.3.408c69.192,12.145,125.793,16.7,185.733,21.522,18.615,1.5,37.874,3.04,57.631,4.848l28.528-8.641c66.926-20.242,136.152-41.18,201.285-62.846,6.42-9.193,21.834-45.972,36.75-81.552,17.208-41.108,35.025-83.608,42.689-93.129l.421-.52.661-.192c165.659-48.957,343.96-100.13,525.393-142.63l1.116-.264.858.712c32.484,26.8,62.231,52.357,90.845,78.088C1289.835,85.7,1679.968,62.177,1733.3,62.177c153.815.032,212.373,643.95,212.373,756.121,0,71.183-19.139,382.277-59.5,429.938-90.519,106.9-709.547,115.971-915.088,115.971M38.829,1247.316c33.575,90.657,604.806,108.658,849.038,112.195,7.827.112,13.655.2,17.216.272,58.893,1.216,275.214,1.6,489.338-12.177,278.2-17.906,447.061-53.141,488.343-101.882,37.144-43.868,58.549-341.049,58.549-427.426,0-61.054-14.427-248.408-49.186-425.065-53.194-270.258-115.735-326.992-158.827-327-53.623,0-448.691,23.626-500.967,60.326l-1.467,1.04-1.348-1.208c-28.717-25.85-58.541-51.517-91.146-78.424C957.676,90.34,780.088,141.288,615.03,190.061c-7.535,10.065-24.915,51.533-41.719,91.657-16.023,38.212-31.146,74.3-37.608,82.928l-.395.528-.661.224c-65.39,21.762-134.882,42.78-202.083,63.1l-29.335,8.881-.584-.032c-19.851-1.808-39.222-3.368-57.957-4.872-59.374-4.785-115.494-9.3-183.871-21.178C23.44,707.143,29.07,975.593,38.829,1247.316" transform="translate(206.518 304.611)" fill="blue"/>
      <path id="Path_106" data-name="Path 106" d="M959.566,1341.128c-41.8,0-67.218-.416-68.651-.448-3.536-.072-8.994-.16-16.178-.264-298.3-4.544-803.851-26.483-838.2-122.372l-.112-.568C26.231,958.6,20.386,702.69,60.355,418.3l.309-2.152,2.283.432c68.6,12.929,123.545,17.77,181.717,22.9,17.963,1.584,36.527,3.224,55.657,5.12L328,435.336c64.24-21.474,130.659-43.684,193.449-66.663,6.763-9.553,21.988-44.988,36.724-79.272,17.019-39.6,34.622-80.552,42.758-90.657l.395-.5.627-.2c159.016-51.8,330.571-106.01,507.619-151.559l1.021-.256.859.592c32.673,22.818,62.669,44.9,91.678,67.479,61.974-39.788,436.47-63.99,489.492-63.99,86.271.016,141.783,174.217,173.151,320.351,35.72,166.368,52.353,350.13,52.353,421.937,0,87.3-22.4,377.149-63.184,425.306-95.935,113.3-691.112,123.22-895.375,123.22m-918.8-124.1c25.49,69.159,321.619,111.531,834.053,119.331,7.184.112,12.651.2,16.2.264,63.69,1.328,274.218,1.576,480.747-12.937,269.936-18.962,435.843-56.405,479.769-108.29,40.174-47.445,62.257-335.849,62.257-422.793,0-151.4-68.582-738.2-221.162-738.232-26.562,0-134.092,6-244.918,17.466-94.673,9.809-213.746,25.851-243.364,46.653l-1.382.968-1.33-1.032c-29.086-22.69-59.168-44.852-91.936-67.759-176.31,45.4-347.212,99.386-505.662,151-7.973,10.5-25.172,50.517-41.822,89.249-15.783,36.732-30.7,71.431-37.548,80.576l-.378.5-.618.224c-63.03,23.082-129.707,45.372-194.2,66.935l-28.554,9.553-.609-.032c-19.259-1.912-37.969-3.56-56.052-5.153-57.64-5.089-112.121-9.889-179.88-22.538-39.591,283.123-33.772,538.1-23.61,796.046" transform="translate(219.39 323.674)" fill="blue"/>
      <path id="Path_107" data-name="Path 107" d="M947.516,1327.351c-28.691,0-52.74-.256-70.66-.624-3.5-.072-8.634-.152-15.208-.264-291.778-4.656-786.7-27.683-823.17-129.509l-.112-.56C27.758,951.443,21.733,709.059,63.951,437.145l.335-2.152,2.274.456c68.007,13.705,121.287,18.842,177.7,24.274,17.311,1.672,35.2,3.392,53.692,5.384l26.949-9.945c61.5-22.69,125.089-46.157,185.493-70.431,7.1-9.921,22.134-43.98,36.681-76.927,16.83-38.124,34.227-77.544,42.844-88.241l.378-.464.584-.216c145.164-52.005,316.882-111.739,489.827-160.472l.936-.264.833.48c32.854,18.85,63.133,37.46,92.528,56.87,33.987-22.234,147.756-39.068,237.838-49.325,100.861-11.481,207.241-18.53,239.1-18.53,91.523.016,150.15,168.8,183.21,310.382,37.814,161.952,55.443,345.218,55.443,418.081,0,87.808-23,368.852-66.875,420.665-48.045,56.741-207.618,95.849-474.276,116.243-148.331,11.345-302.815,14.337-401.925,14.337M42.7,1195.938c27.009,73.559,317.817,118.467,819.025,126.476,6.583.1,11.715.184,15.225.256,228.148,4.7,842.352-9.129,943.35-128.4,43.264-51.1,65.939-330.712,65.939-418.16,0-72.687-17.585-255.553-55.339-417.225C1798.175,218.756,1740.57,51.715,1651.939,51.7c-65.209,0-417.743,27.283-475.614,67.919l-1.27.888-1.3-.856c-29.464-19.5-59.8-38.18-92.725-57.086-172.267,48.573-343.3,108.059-488,159.9-8.419,10.953-25.456,49.549-41.934,86.888-15.569,35.243-30.253,68.527-37.488,78.176l-.352.472-.566.224C452.058,412.6,388.23,436.153,326.5,458.931l-27.893,10.3-.635-.032c-18.675-2.024-36.716-3.76-54.155-5.441-55.906-5.385-108.74-10.473-175.889-23.882C26.136,710.483,32.135,951.923,42.7,1195.938" transform="translate(232.256 333.538)" fill="blue"/>
      <path id="Path_108" data-name="Path 108" d="M933.844,1316.977c-28.065,0-52.156-.248-71.046-.64-3.424-.072-8.188-.152-14.152-.248-62.412-1.048-252.342-4.208-433.088-22.458-230.1-23.234-356.318-61.654-375.14-114.2l-.1-.552c-11.028-230.9-17.242-459.669,27.232-719.342l.369-2.128,2.266.472c67.4,14.5,119.013,19.922,173.649,25.658,16.667,1.744,33.884,3.56,51.761,5.656l25.85-10.521c58.884-23.946,119.768-48.7,177.889-74.3,7.432-10.273,21.628-41.54,36.647-74.607,16.641-36.636,33.841-74.527,42.93-85.816l.352-.44.541-.208C718.776,188.628,883.533,125.749,1051.852,73.9l.833-.256.8.36c33.043,14.913,63.613,30.051,93.4,46.261,64.986-43.124,394.742-71.727,464.389-71.727,96.81.016,158.526,163.368,193.251,300.4,40.371,159.3,58.523,338.129,58.523,414.232,0,96.553-24.726,361.907-70.556,416.032-50.756,59.934-207.429,101.2-465.693,122.652-143.035,11.889-293.057,15.121-392.957,15.121M44.64,1178.412c28.562,78,314.067,125.452,804.083,133.621,5.973.1,10.737.176,14.17.248,7.99.168,798.847,14.785,926.185-135.589,45.229-53.413,69.621-317.375,69.621-413.52,0-75.9-18.118-254.313-58.4-413.3-34.364-135.6-95.059-297.261-189.02-297.277-69.8,0-401.583,28.619-462.947,71.711l-1.158.808-1.253-.672c-29.841-16.29-60.446-31.483-93.532-46.436C884.717,129.7,720.586,192.316,582.048,246.817c-8.874,11.425-25.739,48.581-42.063,84.52-15.328,33.755-29.807,65.646-37.411,75.791l-.326.44-.523.232c-58.343,25.715-119.451,50.557-178.55,74.583l-26.88,10.937-.687-.04c-18.057-2.128-35.446-3.952-52.267-5.72C189.194,481.88,138.009,476.5,71.477,462.318,27.484,720.623,33.663,948.461,44.64,1178.412" transform="translate(245.113 339.832)" fill="blue"/>
      <path id="Path_109" data-name="Path 109" d="M914.458,1306.5c-36.939,0-60.764-.448-65.888-.552-3.321-.064-7.741-.144-13.131-.24-278.741-4.824-752.468-29.931-793.252-143.8l-.1-.544C31.09,953.242,24.25,729.348,70.973,481.932l.412-2.136,2.257.52c66.823,15.289,116.79,21,169.684,27.051,15.981,1.824,32.5,3.712,49.718,5.9l25.481-11.417C374.56,476.755,432.492,450.809,488.106,424c7.776-10.681,21.791-40.612,36.6-72.287,16.444-35.147,33.446-71.487,43.024-83.376l.317-.408.506-.216c132.779-57.294,290.594-123.276,454.27-178.321l.729-.24.738.24c33.24,10.993,64.1,22.658,94.3,35.651,68.84-46.349,383.318-75.6,451.832-75.6,102.174.016,166.946,157.943,203.31,290.42,44.895,163.544,61.613,338.5,61.613,410.376,0,96.809-25.266,353.554-74.255,411.4C1648.55,1294.547,1105.812,1306.5,914.458,1306.5M46.41,1160.886c30.1,82.488,310.282,132.477,789.106,140.774,5.4.088,9.819.168,13.149.232,31.618.656,776.078,14.225,909.02-142.766C1806.055,1102,1831,846.631,1831,750.238c0-167.944-78.4-696.708-260.581-696.748-68.583,0-384.383,29.251-450.262,75.511l-1.056.728-1.167-.5c-30.219-13.049-61.09-24.746-94.364-35.772-163.05,54.861-320.289,120.6-452.691,177.721-9.329,11.929-26.031,47.628-42.191,82.16-15.088,32.267-29.361,62.75-37.325,73.391l-.318.416-.464.224C434.766,454.289,376.637,480.324,320.4,505.5l-26.58,11.913-.73-.048c-17.448-2.224-34.15-4.136-50.3-5.977-52.43-5.992-101.977-11.657-167.942-26.627C28.67,730.82,35.458,953.666,46.41,1160.886" transform="translate(258.148 346.132)" fill="blue"/>
      <path id="Path_110" data-name="Path 110" d="M903.9,1296.2c-33.729,0-58.035-.4-69.364-.632l-12.032-.224c-272.245-4.881-735.372-30.971-778.344-150.951l-.112-.536C32.621,949.412,25.566,739.872,74.589,504.329l.438-2.112,2.249.544c66.291,16.1,114.6,22.1,165.753,28.451,15.3,1.9,31.12,3.864,47.667,6.137l24.8-12.241c53.28-26.259,108.362-53.413,161.556-81.472C485.2,432.546,499,403.951,513.609,373.7c16.264-33.675,33.077-68.487,43.127-80.976l.3-.376.455-.216C676.727,235.751,834.1,163.52,993.987,104.9l.626-.232.652.136a982.079,982.079,0,0,1,95.214,25.018c72.9-49.645,372.076-79.48,439.294-79.48,107.556.024,175.391,152.527,213.36,280.451,47.47,159.96,64.695,330.752,64.695,406.52,0,106.818-27.507,347.218-77.937,406.767C1612.559,1282.637,1099.851,1296.2,903.9,1296.2M48.37,1143.359c31.669,87.024,306.574,139.55,774.207,147.926l12.041.224c76.95,1.584,755.635,10.929,891.856-149.942,49.83-58.838,77.011-297.917,77.011-404.255,0-75.543-17.191-245.864-64.549-405.439C1701.379,205.3,1634.6,54.413,1529.773,54.4c-64.969,0-368.4,30.715-437.6,79.3l-.927.648-1.09-.352a980,980,0,0,0-95.2-25.106c-159.308,58.454-316.1,130.4-435.045,186.642-9.8,12.457-26.331,46.7-42.329,79.832-14.865,30.779-28.906,59.846-37.24,70.967l-.712.608c-53.374,28.163-108.645,55.405-162.106,81.752l-26.091,12.873-.884-.144c-16.59-2.28-32.613-4.264-48.1-6.193-50.7-6.3-98.63-12.249-164.028-28C30,741.336,37.007,949.836,48.37,1143.359" transform="translate(270.992 352.426)" fill="blue"/>
      <path id="Path_111" data-name="Path 111" d="M895.124,1285.912c-31.094,0-56.593-.368-74.625-.736l-10.96-.208c-265.722-4.912-718.241-31.979-763.411-158.1l-.112-.52c-11.861-180.673-19.156-375.812,32.2-599.618l.481-2.1,2.223.568c65.742,16.914,112.387,23.2,161.771,29.859,14.642,1.976,29.773,4.016,45.659,6.369l24.28-13.185c50.482-27.395,102.672-55.717,153.386-84.952,8.505-11.521,22.1-38.756,36.493-67.574,16.075-32.2,32.708-65.494,43.247-78.592l.686-.56C659.861,257.788,809.96,182.389,965.157,120.391l.515-.208.558.056a886.75,886.75,0,0,1,96.167,14.353c73.775-50.629,347.839-83.352,426.737-83.352,113.014.024,183.862,147.094,223.393,270.466,44.509,138.893,67.8,307.7,67.8,402.671,0,106.706-28.039,338.849-81.628,402.135-58.953,69.615-206.966,117.356-439.929,141.9-137.466,14.474-273.849,17.5-363.648,17.5M50.343,1125.833c33.257,91.577,302.867,146.646,759.291,155.079l10.96.208c70.058,1.456,252.9,2.728,437.689-16.738,231.77-24.41,378.8-71.639,437-140.381,52.98-62.558,80.692-293.413,80.692-399.623,0-94.665-23.224-262.986-67.613-401.511-39.11-122.052-108.886-267.554-219.23-267.57-76.427,0-354.379,33.555-424.935,83.1l-.807.568-.979-.208a879.448,879.448,0,0,0-96.063-14.425C811.7,186.133,662.118,261.268,548.967,319.89c-10.3,13-26.674,45.8-42.517,77.527-14.616,29.275-28.416,56.918-37.119,68.519l-.644.568C417.8,495.851,365.448,524.262,314.82,551.737l-25.644,13.921-.935-.152c-15.981-2.376-31.326-4.44-46.165-6.441C193.1,552.457,146.818,546.216,82,529.67,31.3,752,38.542,946.071,50.343,1125.833" transform="translate(283.824 358.72)" fill="blue"/>
      <path id="Path_112" data-name="Path 112" d="M881.556,1275.546c-29.026,0-54.421-.328-75.071-.76l-9.818-.192c-259.216-4.912-701.153-32.907-748.554-165.248l-.1-.5C35.685,942.009,28.141,761.368,81.868,549.107l.532-2.072,2.2.592c65.235,17.738,110.233,24.323,157.874,31.291,13.947,2.04,28.356,4.144,43.547,6.577L310.2,571.021c47.547-28.411,96.7-57.8,144.795-88.1,8.849-11.945,22.237-37.8,36.39-65.166C507.3,387,523.745,355.216,534.79,341.5l.609-.512C643.1,279.849,786,201.289,936.329,135.891l.875-.184a814.482,814.482,0,0,1,97.11,3.664c76.006-52.485,330.82-87.232,414.19-87.232,118.55.024,192.385,141.67,233.443,260.489,48.7,140.918,70.882,305.526,70.882,398.823,0,121.284-30.382,332.624-85.309,397.5-61.716,72.879-206.838,122.78-431.337,148.3-130.479,14.841-261.276,18.29-354.628,18.29M52.327,1108.306c34.871,96.185,299.2,153.8,744.426,162.24l9.827.184c165.642,3.456,716.936,1.736,857.526-164.288,31.214-36.868,51.392-117.867,62.824-179.321,13.294-71.463,21.55-154.1,21.55-215.669,0-186.482-89.232-655.216-299.974-655.256-83.207,0-337.823,34.627-412.267,86.9l-.686.488-.859-.088a810.888,810.888,0,0,0-96.93-3.744c-149.833,65.206-292.276,143.5-399.737,204.492-10.8,13.577-27.018,44.932-42.715,75.271-14.358,27.747-27.927,53.957-36.973,66.03l-.566.52c-48.251,30.411-97.54,59.878-145.215,88.376l-25.644,15.338-1.013-.192c-15.285-2.44-29.936-4.593-44.1-6.657-47.247-6.921-91.9-13.449-156.227-30.811C32.6,762.8,40.08,942.409,52.327,1108.306" transform="translate(296.645 365.014)" fill="blue"/>
      <path id="Path_113" data-name="Path 113" d="M866.109,1265.149c-27.232,0-52-.3-73.612-.752l-8.694-.176c-56.206-1.088-227.221-4.408-388.623-27.154C190.4,1208.2,74.308,1159.338,50.122,1091.82l-.1-.48C37.206,938.421,29.4,772.317,85.542,571.489l.566-2.048,2.171.624C153.043,588.643,196.393,595.516,242.3,602.8c13.234,2.1,26.915,4.265,41.4,6.761l24.614-16.234c44.432-29.283,90.382-59.566,135.689-90.777,9.183-12.361,22.323-36.8,36.235-62.678,15.749-29.315,32.047-59.63,43.608-73.983l.532-.472C675.862,271.156,794.033,205.15,907.537,151.393l.678-.2a782.986,782.986,0,0,1,98.055-7.049c80.323-55.765,321.113-91.1,401.625-91.1,226.122.04,317.474,455.54,317.474,645.479,0,120.636-30.932,324.279-89.009,392.862-128.068,151.239-537.9,173.769-770.251,173.769M54.336,1090.772c36.484,100.818,295.546,160.984,729.553,169.4l8.694.168c205.413,4.217,698.492-3.936,840.361-171.473,57.468-67.863,88.073-270.306,88.073-390.35,0-188.746-90.1-641.382-313.123-641.43-80.272,0-320.555,35.2-399.591,90.7l-.575.4-.721.008a777.955,777.955,0,0,0-97.823,6.969C796.007,208.782,678.153,274.62,527.1,368.59c-11.312,14.185-27.4,44.124-42.973,73.1-14.084,26.195-27.387,50.941-36.759,63.462l-.5.464c-45.427,31.307-91.5,61.67-136.049,91.025L284.793,613.8l-.944-.1c-14.856-2.56-28.8-4.768-42.277-6.913-45.53-7.217-88.563-14.041-152.4-32.227-55.305,199.187-47.564,364.227-34.836,516.21" transform="translate(309.44 371.314)" fill="blue"/>
      <path id="Path_114" data-name="Path 114" d="M851.338,1254.775c-25.713,0-50.173-.288-73.037-.76l-7.51-.152c-60.875-1.208-222.6-4.392-380.057-28.027-199.525-29.947-313.509-80.928-338.793-151.527l-.1-.464C39.085,941.008,30.4,783.425,89.009,593.87l.627-2.008,2.137.648c64.291,19.426,106,26.595,150.167,34.187,12.522,2.152,25.473,4.385,39.248,6.937l25.868-18.85C348.131,584.893,390.6,553.995,432.8,522.2c9.527-12.777,22.417-35.8,36.063-60.182,15.612-27.891,31.755-56.726,43.839-71.743l.464-.424C654.285,293.537,770.38,222.69,878.528,166.909l.506-.184a778.185,778.185,0,0,1,98.99-17.81c83.233-58.006,302.094-94.977,389.069-94.977,230.774.048,330.605,418.3,330.605,631.653,0,112.419-29.455,313.558-92.7,388.23-129.664,153.135-501.139,180.954-753.661,180.954M56.147,1073.245c38.123,105.506,291.924,168.208,714.739,176.561l7.51.152c246.591,5.1,681.491-11.3,823.2-178.649,44.122-52.109,91.755-214.4,91.755-385.718,0-98.666-23.748-257.425-76.8-389.71C1573.038,187.375,1494.44,58.018,1367.093,57.994c-88.631,0-307.845,38.964-386.924,94.481l-.472.336-.583.056A774.314,774.314,0,0,0,880.4,170.581C772.543,226.227,656.739,296.89,515.987,392.947c-11.852,14.826-27.824,43.356-43.273,70.951-13.792,24.642-26.82,47.917-36.518,60.854l-.42.416c-42.312,31.883-84.872,62.862-126.042,92.817L282.389,637.9l-1.013-.1c-14.2-2.64-27.438-4.913-40.235-7.113-43.8-7.529-85.215-14.649-148.571-33.675C34.88,784.873,43.488,941.3,56.147,1073.245" transform="translate(322.434 377.608)" fill="blue"/>
      <path id="Path_115" data-name="Path 115" d="M837.147,1244.393q-35.673,0-72.788-.768l-6.291-.128c-419.871-8.417-663.33-72.983-704.062-186.714l-.1-.432C40.617,936.97,31.562,794.669,92.738,616.243l.678-1.968,2.094.664c63.9,20.314,103.977,27.787,146.417,35.692,11.844,2.208,23.979,4.464,36.99,7.065l28.991-23.362c37.119-29.883,75.5-60.79,113.949-92.5,9.818-13.145,22.417-34.7,35.763-57.518,15.509-26.514,31.541-53.933,44.2-69.663l.369-.36C635,314.742,745.443,241.055,849.78,182.417A797.082,797.082,0,0,1,950.05,153.671c87.764-61.318,293.5-98.834,376.5-98.834,242.91.048,343.737,402.415,343.737,617.828,0,130.773-33.781,309.654-96.381,383.589-104.56,123.476-358.55,188.138-736.753,188.138M58.2,1055.71c26,72.087,136.676,124.2,328.966,154.911,153.145,24.458,311.415,27.627,370.994,28.819l6.291.128c417.091,8.641,695.772-55.621,806.031-185.826,62-73.215,95.446-250.984,95.446-381.077,0-92.625-20.907-249.232-79.851-385.773-44.886-104-126.36-227.966-259.534-228-82.6,0-287.418,37.308-374.256,98.282l-.824.352a796.277,796.277,0,0,0-99.788,28.523c-103.754,58.35-214,131.885-346.543,231.247-12.445,15.522-28.331,42.692-43.693,68.967-13.466,23.026-26.194,44.78-36.166,58.094l-.343.352C386.4,576.5,347.946,607.459,310.75,637.4l-30.519,24.594-1.073-.112c-13.526-2.7-25.962-5.017-38.089-7.281-42.106-7.841-81.911-15.258-144.855-35.155C36.068,796.093,45.02,937.235,58.2,1055.71" transform="translate(335.175 383.902)" fill="blue"/>
      <path id="Path_116" data-name="Path 116" d="M826.854,1234.091c-27.85,0-53.623-.368-76.7-.848l-5.064-.1c-408.482-8.281-646.843-75.319-689.3-193.867l-.094-.4C40.786,925.261,35.379,798.144,96.2,638.625l.721-1.92,2.06.688c63.57,21.218,100.26,28.635,142.744,37.211,11.063,2.232,22.417,4.529,34.639,7.153q18.1-16.213,36.81-32.883c31.721-28.331,64.531-57.622,97.608-87.528,9.827-13.177,22.134-33.267,35.18-54.541,15.44-25.2,31.412-51.261,44.689-67.75l.3-.3C615.537,336,720.329,259.484,820.752,197.942a844,844,0,0,1,101.042-39.508c90.888-63.63,273.128-102.7,363.922-102.7,141.482.032,226.886,119.956,273.609,220.557,61.4,132.165,83.267,284.732,83.267,383.445,0,179.169-51.872,322.039-100.072,378.957-72.977,86.177-206.529,144.7-396.956,173.961-113.418,17.418-227.221,21.434-318.71,21.434M59.985,1038.176c29.326,81.392,172.07,180.505,685.2,190.906l5.055.1c407.908,8.5,673.269-56.493,788.866-193,47.753-56.389,99.136-198.243,99.136-376.444,0-98.306-21.774-250.24-82.907-381.837-46.208-99.49-130.5-218.077-269.618-218.109-88.159,0-272.837,39.772-361.588,102.082l-.609.3a840.129,840.129,0,0,0-100.6,39.284C722.938,262.732,618.352,339.1,494,441.646c-13.088,16.306-28.931,42.164-44.26,67.166-13.088,21.354-25.456,41.524-35.66,55.149-33.36,30.211-66.171,59.51-97.9,87.833q-19.117,17.078-37.617,33.611l-.79.7-1.159-.136c-12.745-2.744-24.434-5.1-35.806-7.4-42.174-8.521-78.667-15.889-141.242-36.676C39.859,799.624,45.223,925.565,59.985,1038.176" transform="translate(348.197 390.195)" fill="blue"/>
      <path id="Path_117" data-name="Path 117" d="M817.375,1223.868c-32.3,0-59.983-.576-81.327-1.016l-3.845-.08c-276.9-5.672-618.684-45.149-674.513-201.028C42.7,927.183,36.07,810.684,99.778,660.982l.79-1.848,2,.7c63.313,22.178,98.475,29.883,139.182,38.8,10.248,2.248,20.8,4.552,32.184,7.185,26.64-26.539,54.61-54.277,83.293-82.728l42.406-42.06c10.041-13.449,21.894-31.827,34.433-51.285,15.5-24.034,31.515-48.893,45.539-66.3C594.643,358.8,696.705,277.1,791.833,213.458a910.937,910.937,0,0,1,101.84-50.269C984.613,99.447,1148.692,56.635,1245,56.635c147.464.032,235.64,114.523,283.642,210.564,63.682,127.4,86.366,279.627,86.366,379.6,0,152.959-40.724,299.893-103.762,374.324-154.888,182.914-503.971,202.74-693.876,202.74M103.039,664.326C40.55,812.253,47.159,927.512,61.912,1020.809c30.279,84.456,171.255,187.69,670.385,197.907l3.845.08c146.383,3.048,591.821,12.249,771.693-200.18,62.472-73.759,102.835-219.709,102.835-371.812,0-99.545-22.58-251.088-85.962-377.893-47.47-94.969-134.53-208.2-279.7-208.22-95.686,0-258.719,42.548-348.912,105.874l-.429.232a908.894,908.894,0,0,0-101.428,50.037c-94.819,63.454-196.719,145.006-311.381,249.272-13.655,17-29.627,41.772-45.058,65.718-12.582,19.522-24.469,37.964-34.8,51.741L360.4,625.858c-28.974,28.739-57.211,56.742-84.134,83.56l-.953.952-1.408-.392c-11.655-2.7-22.563-5.089-33.154-7.409-40.423-8.849-75.4-16.514-137.714-38.244" transform="translate(361.101 396.489)" fill="blue"/>
      <path id="Path_118" data-name="Path 118" d="M803.175,1213.488c-31.36,0-58.867-.576-81.13-1.032l-2.575-.056c-56.361-1.16-206.091-4.24-347.281-31.339-177.528-34.067-282.664-93.561-312.5-176.841-14.891-75.7-23.3-180.321,43.771-320.9l.85-1.768,1.94.712c63.176,23.194,96.819,31.187,135.766,40.444,9.4,2.232,19.087,4.536,29.567,7.145,44.491-49.541,81.679-90.593,117-129.164,10.007-13.377,21.121-29.7,32.9-47,15.8-23.2,32.141-47.2,47.178-65.878C575.628,380.263,671.863,295.647,763.018,228.977a998.166,998.166,0,0,1,102.775-61.118C956.707,104,1099.219,57.536,1204.388,57.536c153.575.024,244.472,109.083,293.683,200.563,56.018,104.162,89.472,244.632,89.472,375.765,0,152.031-40.174,290.236-107.452,369.692-160.278,189.282-488.222,209.932-676.916,209.932M106.6,686.749C40.915,825.418,49.257,928.669,63.9,1003.212c29.223,81.528,133.269,140.126,309.166,173.881,140.8,27.019,290.25,30.1,346.509,31.259l2.566.048c155.626,3.216,568.966,11.8,754.536-207.348,66.694-78.768,106.517-216.029,106.517-367.188,0-130.533-33.283-270.33-89.009-373.948-48.663-90.457-138.435-198.3-289.8-198.331-104.328,0-245.742,46.124-336.244,109.675a999.424,999.424,0,0,0-102.509,60.958C674.73,298.7,578.658,383.176,471.978,490.41c-14.779,18.394-31.069,42.324-46.826,65.462-11.8,17.33-22.949,33.691-33.137,47.293-35.66,38.972-73.105,80.312-117.949,130.253l-.953,1.056-1.485-.416c-10.831-2.7-20.915-5.1-30.682-7.417-38.69-9.193-72.161-17.146-134.35-39.892" transform="translate(373.902 402.797)" fill="blue"/>
      <path id="Path_119" data-name="Path 119" d="M787.024,1203.081c-30.51,0-57.356-.552-79.079-1.008l-1.313-.024c-60.592-1.256-202.495-4.192-339.5-32.147C195.384,1134.858,92.583,1073.22,61.592,986.7,31.072,867.265,72.92,769.119,107.053,705.673l.91-1.68,1.862.72c63.2,24.282,95.343,32.587,132.565,42.2,8.471,2.184,17.251,4.448,26.752,6.992,33.618-42.052,69.587-86.888,108.285-133.525,8.951-11.945,18.306-24.906,28.211-38.636,17.1-23.706,34.8-48.213,51.958-69.535,98.956-110.355,189.381-197.891,276.5-267.69a1100.025,1100.025,0,0,1,103.5-71.879c100.278-70.407,225.272-114.2,326.073-114.2C1290.18,58.466,1395.2,124.36,1467.382,249c58.833,101.61,92.579,237.175,92.579,371.932,0,150.775-39.471,280.419-111.143,365.059-81.731,96.529-206.614,161.52-371.157,193.195-103.951,20-210.021,23.89-290.637,23.89M110.04,709.177C40.41,839.558,51.4,929.327,65.771,985.588c30.416,84.9,132.144,145.638,302.292,180.354,136.6,27.875,278.2,30.8,338.664,32.051l1.3.024c78.976,1.648,225.95,4.688,368.754-22.8,163.513-31.467,287.538-95.977,368.617-191.731,71.071-83.928,110.208-212.677,110.208-362.547,0-224.446-104.38-558.4-391.936-558.446-99.908,0-223.891,43.476-323.576,113.467A1097.738,1097.738,0,0,0,736.912,247.6C650,317.243,559.735,404.628,461,514.726c-17.019,21.146-34.682,45.612-51.761,69.279-9.913,13.737-19.276,26.723-28.3,38.772-39.1,47.125-75.38,92.345-109.178,134.637l-.944,1.176-1.571-.44c-9.93-2.672-19.139-5.04-28.022-7.337C204.241,741.26,172.245,733,110.04,709.177" transform="translate(386.808 409.083)" fill="blue"/>
      <path id="Path_120" data-name="Path 120" d="M778.8,1192.811c-30.811,0-59.339-.6-84.846-1.12-59.58-1.232-199.1-4.12-331.875-32.931C196.186,1122.772,95.771,1058.99,63.6,969.189c-24.22-67.615-7.913-151.015,47.161-241.175l.97-1.576,1.785.72c63.51,25.523,92.742,33.731,129.741,44.116,7.45,2.088,15.174,4.256,23.525,6.665C356.884,649.11,494.375,461.1,651.2,309.933c172.508-166.28,331.266-250.6,471.864-250.6h3.75l-.043.072c278.707,2.52,405.719,285.556,405.719,548.605,0,151.287-37.566,269.178-114.833,360.427C1246.946,1170.049,969.749,1192.8,778.8,1192.811M113.588,731.6C59.913,820.119,44.053,901.807,67.732,967.9c49.5,138.23,260.229,212.157,626.314,219.733,182.867,3.784,523.282,10.841,720.2-221.71,76.641-90.5,113.9-207.58,113.9-357.915,0-262.273-126.772-544.565-405.109-544.565h-3.742l.017-.032C980.855,64.9,824.448,148.774,654.326,312.75,497.233,464.18,359.493,652.743,269.557,781.4l-.918,1.312-1.665-.472c-8.883-2.568-17.079-4.873-24.966-7.089-36.785-10.329-65.922-18.506-128.419-43.556" transform="translate(399.601 415.377)" fill="blue"/>
      <path id="Path_121" data-name="Path 121" d="M82.438,471.986l.034-.016c279.745-313.958,651.143-366.8,773.6-366.8,206.34,0,392.845,123.892,392.845,259.785,0,122.316-705.135,190.2-1166.477,107.034" transform="translate(625.083 736.251)" fill="blue"/>
    </g>
  </g>
</svg>
