<svg id="Group_93" data-name="Group 93" xmlns="http://www.w3.org/2000/svg" xmlns:xlink="http://www.w3.org/1999/xlink" width="127.77" height="44.978" viewBox="0 0 127.77 44.978">
  <defs>
    <clipPath id="clip-path">
      <rect id="Rectangle_72" data-name="Rectangle 72" width="127.77" height="44.978" fill="none"/>
    </clipPath>
  </defs>
  <g id="Group_69" data-name="Group 69" clip-path="url(#clip-path)">
    <path id="Path_286" data-name="Path 286" d="M317.266,45.241a6.6,6.6,0,0,1-5.076,1.917,6.359,6.359,0,0,1-4.72-1.772,5.742,5.742,0,0,1-1.617-4.087l3.217.041a2.552,2.552,0,0,0,.691,1.784,3.294,3.294,0,0,0,2.429.817,3.354,3.354,0,0,0,2.8-.984.557.557,0,0,0-.184-.841,20.4,20.4,0,0,0-3.027-1.047l-.593-.167c-2.775-.811-5.336-1.951-5.336-4.789a4.292,4.292,0,0,1,1.353-2.976,6.838,6.838,0,0,1,4.892-1.813h.023a6.315,6.315,0,0,1,4.915,1.894,5.867,5.867,0,0,1,1.41,3.995h0v.366h-3.223v-.372a2.731,2.731,0,0,0-.6-1.853,3.3,3.3,0,0,0-2.51-.811H312.1c-2.268,0-2.8,1.237-2.749,1.571s.033.9,2.744,1.7l.575.167c2.648.76,5.647,1.617,5.837,4.179a4.275,4.275,0,0,1-1.238,3.085" transform="translate(-243.756 -24.964)" fill="#0d2436"/>
    <path id="Path_287" data-name="Path 287" d="M389.571,39.061a7.483,7.483,0,1,1-14.941,0,7.483,7.483,0,1,1,14.941,0m-3.453,0a4.04,4.04,0,1,0-8.033,0,4.04,4.04,0,1,0,8.033,0" transform="translate(-298.571 -24.816)" fill="#0d2436"/>
    <path id="Path_288" data-name="Path 288" d="M468.718,39.061a7.483,7.483,0,1,1-14.941,0,7.483,7.483,0,1,1,14.941,0m-3.453,0a4.04,4.04,0,1,0-8.034,0,4.04,4.04,0,1,0,8.034,0" transform="translate(-361.649 -24.816)" fill="#0d2436"/>
    <path id="Path_289" data-name="Path 289" d="M544.25,31.1v3.468H539.7V46.973h-3.423V31.1Z" transform="translate(-427.402 -24.784)" fill="#0d2436"/>
    <path id="Path_290" data-name="Path 290" d="M581.591,35.511V46.663h-3.454v-.657a5.9,5.9,0,0,1-3.16.946,5.547,5.547,0,1,1,0-11.094h3.16v-.347a.96.96,0,0,0-.959-.959h-2.2V31.1h2.2a4.418,4.418,0,0,1,4.413,4.413m-3.52,3.8h-3.093a2.094,2.094,0,0,0,0,4.188c2.074,0,2.823-2.4,3.093-4.188" transform="translate(-453.821 -24.784)" fill="#0d2436"/>
    <path id="Path_291" data-name="Path 291" d="M317.266,153.961a6.6,6.6,0,0,1-5.076,1.917,6.359,6.359,0,0,1-4.72-1.772,5.742,5.742,0,0,1-1.617-4.087l3.217.041a2.552,2.552,0,0,0,.691,1.784,3.294,3.294,0,0,0,2.429.817,3.354,3.354,0,0,0,2.8-.984.557.557,0,0,0-.184-.841,20.4,20.4,0,0,0-3.027-1.047l-.593-.167c-2.775-.811-5.336-1.951-5.336-4.789a4.292,4.292,0,0,1,1.353-2.976,6.838,6.838,0,0,1,4.892-1.813h.023a6.315,6.315,0,0,1,4.915,1.894,5.867,5.867,0,0,1,1.41,3.995h0v.366h-3.223v-.372a2.731,2.731,0,0,0-.6-1.853,3.3,3.3,0,0,0-2.51-.811H312.1c-2.268,0-2.8,1.237-2.749,1.571s.033.9,2.744,1.7l.575.167c2.648.76,5.647,1.617,5.837,4.179a4.275,4.275,0,0,1-1.238,3.085" transform="translate(-243.756 -111.612)" fill="#0d2436"/>
    <path id="Path_292" data-name="Path 292" d="M383.082,139.313v3.453h-1.372a4.456,4.456,0,0,1-4.451-4.451V123.573h3.454v4.184h2.269v3.454h-2.269v7.1a1,1,0,0,0,1,1Z" transform="translate(-300.665 -98.485)" fill="#0d2436"/>
    <path id="Path_293" data-name="Path 293" d="M425.641,147.781a7.483,7.483,0,1,1-7.47-7.923,7.715,7.715,0,0,1,7.47,7.923m-3.454,0a4.04,4.04,0,1,0-4.017,4.47,4.267,4.267,0,0,0,4.017-4.47" transform="translate(-327.317 -111.463)" fill="#0d2436"/>
    <path id="Path_294" data-name="Path 294" d="M501.172,139.818v3.468h-4.546v12.407H493.2V139.818Z" transform="translate(-393.07 -111.431)" fill="#0d2436"/>
    <path id="Path_295" data-name="Path 295" d="M538.241,149.89a4.193,4.193,0,0,0,3.977,3.511,3.991,3.991,0,0,0,3.448-2.112h3.586a7.462,7.462,0,0,1-7.034,5.422,7.865,7.865,0,0,1,0-15.7,7.463,7.463,0,0,1,7.034,5.428,8.177,8.177,0,0,1,.363,2.423,7.617,7.617,0,0,1-.069,1.03Zm7.425-3.453a3.865,3.865,0,0,0-6.9,0Z" transform="translate(-426.24 -112.381)" fill="#0d2436"/>
    <path id="Path_296" data-name="Path 296" d="M40.563,6.544,38.641,0H19.01L17.088,6.544H0V44.977H57.651V6.544Z" transform="translate(0 0)" fill="blue"/>
    <path id="Path_297" data-name="Path 297" d="M31.589,43.283v0c-7.7,0-15.786,11.1-20.733,18.694A27.946,27.946,0,0,1,7.1,60.64a34.433,34.433,0,0,0,1.035-6.256h-.8a7.816,7.816,0,0,1-1.781,4.594A8.018,8.018,0,0,1,0,61.721V71.938a9.408,9.408,0,0,0,2.389-1.312,9.819,9.819,0,0,0,3.237-4.44c1.979,4.735,8.714,6.431,15.563,6.431,12.81,0,20.271-4.028,20.271-15.123,0-6.5-2.876-14.212-9.872-14.212M11.831,62.3h0a26.064,26.064,0,0,1,18.751-9.537c5,0,9.522,3.221,9.522,6.754,0,3.18-17.092,4.945-28.274,2.783" transform="translate(0 -34.494)" fill="#fff"/>
    <rect id="Rectangle_71" data-name="Rectangle 71" width="5.405" height="1.926" transform="translate(48.695 3.048)" fill="blue"/>
  </g>
</svg>
