<svg xmlns="http://www.w3.org/2000/svg" width="153.034" height="32.927" viewBox="0 0 153.034 32.927">
  <g id="Group_8" data-name="Group 8" transform="translate(21912 -144.998)">
    <circle id="Ellipse_2" data-name="Ellipse 2" cx="16.463" cy="16.463" r="16.463" transform="translate(-21791.893 144.998)" fill="blue"/>
    <path id="Path_18" data-name="Path 18" d="M1052.155,1201.577a9.89,9.89,0,0,0-8.447,14.441l-1.1,4.947a.317.317,0,0,0,.375.375l4.947-1.1h0a9.827,9.827,0,0,0,5.028,1.1,9.888,9.888,0,0,0-.8-19.759m.329,17.724a7.781,7.781,0,0,1-3.945-1.067q-.164-.092-.317-.194l-3.161.842.842-3.161a7.84,7.84,0,1,1,6.58,3.58" transform="translate(-22827.645 -1050.665)" fill="#fff"/>
    <path id="Path_19" data-name="Path 19" d="M1113.75,1271.513a3.823,3.823,0,0,1-.509.626,2.359,2.359,0,0,1-1.907.684,8.5,8.5,0,0,1-6.994-6.994,2.359,2.359,0,0,1,.684-1.907,4.072,4.072,0,0,1,.626-.513.687.687,0,0,1,1.039.345l.52,1.559a.783.783,0,0,1-.106.879l-.414.417a.615.615,0,0,0-.082.769,13.165,13.165,0,0,0,3.179,3.179.615.615,0,0,0,.769-.082l.417-.414a.782.782,0,0,1,.878-.106l1.559.52a.683.683,0,0,1,.342,1.039" transform="translate(-22884.26 -1107.267)" fill="#fff"/>
    <circle id="Ellipse_3" data-name="Ellipse 3" cx="16.463" cy="16.463" r="16.463" transform="translate(-21912 144.998)" fill="blue"/>
    <path id="Path_20" data-name="Path 20" d="M131.048,77.535l-.274,2.2a.734.734,0,0,1-.727.645h-3.567V89.59q-.565.051-1.143.051a12.73,12.73,0,0,1-2.516-.25v-9.01h-2.744a.459.459,0,0,1-.457-.459V77.167a.46.46,0,0,1,.457-.459h2.744V72.574a4.583,4.583,0,0,1,4.574-4.592h3.2a.46.46,0,0,1,.457.459V71.2a.46.46,0,0,1-.457.459h-2.287a1.833,1.833,0,0,0-1.829,1.837v3.215h3.842a.735.735,0,0,1,.727.827" transform="translate(-22021.707 82.65)" fill="#fff"/>
    <circle id="Ellipse_4" data-name="Ellipse 4" cx="16.463" cy="16.463" r="16.463" transform="translate(-21832.451 144.998)" fill="blue"/>
    <g id="Group_28" data-name="Group 28">
      <path id="Path_21" data-name="Path 21" d="M1067.552,94.461h-8.933a4.17,4.17,0,0,0-4.169,4.169v8.933a4.17,4.17,0,0,0,4.169,4.169h8.933a4.17,4.17,0,0,0,4.169-4.169V98.63a4.17,4.17,0,0,0-4.169-4.169m2.68,12.8a2.979,2.979,0,0,1-2.978,2.978h-8.338a2.979,2.979,0,0,1-2.978-2.978V98.928a2.979,2.979,0,0,1,2.978-2.978h8.338a2.979,2.979,0,0,1,2.978,2.978Z" transform="translate(-22879.072 58.365)" fill="#fff"/>
      <path id="Path_22" data-name="Path 22" d="M1109.328,144.771a4.467,4.467,0,1,0,4.467,4.467,4.468,4.468,0,0,0-4.467-4.467m0,7.445a2.978,2.978,0,1,1,2.978-2.978,2.983,2.983,0,0,1-2.978,2.978" transform="translate(-22925.307 12.224)" fill="#fff"/>
      <path id="Path_23" data-name="Path 23" d="M1206.373,132.184a.893.893,0,1,1,.893-.893.894.894,0,0,1-.893.893" transform="translate(-23017.588 25.406)" fill="#fff"/>
    </g>
    <circle id="Ellipse_5" data-name="Ellipse 5" cx="16.463" cy="16.463" r="16.463" transform="translate(-21872.225 144.998)" fill="blue"/>
    <path id="Path_24" data-name="Path 24" d="M574.341,101.584,581,94.461h-2.529l-5.227,5.591-4-5.591h-6.917l7,9.781-7,7.49h2.529l5.57-5.958,4.265,5.958h6.917Zm-8.453-5.292H568.3l9.742,13.608H575.63Z" transform="translate(-22427.727 58.365)" fill="#fff"/>
  </g>
</svg>
