<svg xmlns="http://www.w3.org/2000/svg" width="17.271" height="17.271" viewBox="0 0 17.271 17.271">
  <g id="Group_28" data-name="Group 28" transform="translate(21824.623 -152.826)">
    <path id="Path_21" data-name="Path 21" d="M1067.552,94.461h-8.933a4.17,4.17,0,0,0-4.169,4.169v8.933a4.17,4.17,0,0,0,4.169,4.169h8.933a4.17,4.17,0,0,0,4.169-4.169V98.63a4.17,4.17,0,0,0-4.169-4.169m2.68,12.8a2.979,2.979,0,0,1-2.978,2.978h-8.338a2.979,2.979,0,0,1-2.978-2.978V98.928a2.979,2.979,0,0,1,2.978-2.978h8.338a2.979,2.979,0,0,1,2.978,2.978Z" transform="translate(-22879.072 58.365)" fill="#fff"/>
    <path id="Path_22" data-name="Path 22" d="M1109.328,144.771a4.467,4.467,0,1,0,4.467,4.467,4.468,4.468,0,0,0-4.467-4.467m0,7.445a2.978,2.978,0,1,1,2.978-2.978,2.983,2.983,0,0,1-2.978,2.978" transform="translate(-22925.307 12.224)" fill="#fff"/>
    <path id="Path_23" data-name="Path 23" d="M1206.373,132.184a.893.893,0,1,1,.893-.893.894.894,0,0,1-.893.893" transform="translate(-23017.588 25.406)" fill="#fff"/>
  </g>
</svg>
