<svg id="Icon_" data-name="Icon " xmlns="http://www.w3.org/2000/svg" width="16" height="16" viewBox="0 0 16 16">
  <circle id="Oval" cx="8" cy="8" r="8" transform="translate(0 0)" fill="#36b37e" opacity="0.15"/>
  <path id="Icon" d="M2.266,4.87.091,2.708a.347.347,0,0,1,0-.469l.482-.469a.29.29,0,0,1,.228-.1.331.331,0,0,1,.241.1L2.5,3.229,5.625.1A.331.331,0,0,1,5.866,0a.29.29,0,0,1,.228.1l.482.469a.317.317,0,0,1,.091.234.317.317,0,0,1-.091.234L2.734,4.87a.316.316,0,0,1-.469,0Z" transform="translate(4.667 5.68)" fill="#36b37e"/>
</svg>
