<svg id="Group_72" data-name="Group 72" xmlns="http://www.w3.org/2000/svg" xmlns:xlink="http://www.w3.org/1999/xlink" width="107.935" height="103.5" viewBox="0 0 107.935 103.5">
  <defs>
    <clipPath id="clip-path">
      <rect id="Rectangle_76" data-name="Rectangle 76" width="107.935" height="103.5" fill="none"/>
    </clipPath>
  </defs>
  <g id="Group_71" data-name="Group 71" clip-path="url(#clip-path)">
    <path id="Path_311" data-name="Path 311" d="M9.73,473.253a5.257,5.257,0,0,1-4.043,1.527,5.062,5.062,0,0,1-3.759-1.412A4.573,4.573,0,0,1,.64,470.113l2.562.032a2.033,2.033,0,0,0,.55,1.421,2.624,2.624,0,0,0,1.935.651,2.67,2.67,0,0,0,2.232-.784.443.443,0,0,0-.147-.669,16.265,16.265,0,0,0-2.411-.834l-.472-.133c-2.21-.646-4.25-1.554-4.25-3.814a3.418,3.418,0,0,1,1.077-2.37,5.446,5.446,0,0,1,3.9-1.444h.018a5.03,5.03,0,0,1,3.915,1.508,4.674,4.674,0,0,1,1.123,3.182h0v.292H8.1v-.3a2.173,2.173,0,0,0-.477-1.476,2.627,2.627,0,0,0-2-.646H5.613c-1.806,0-2.226.985-2.19,1.251s.027.714,2.186,1.352l.458.133c2.109.6,4.5,1.288,4.648,3.328a3.4,3.4,0,0,1-.986,2.457" transform="translate(-0.514 -371.33)" fill="#fff"/>
    <path id="Path_312" data-name="Path 312" d="M69.113,468.325a5.96,5.96,0,1,1-5.95-6.31,6.145,6.145,0,0,1,5.95,6.31m-2.751,0a3.217,3.217,0,1,0-3.2,3.56,3.4,3.4,0,0,0,3.2-3.56" transform="translate(-45.969 -371.206)" fill="#fff"/>
    <path id="Path_313" data-name="Path 313" d="M134.215,468.325a5.96,5.96,0,1,1-5.95-6.31,6.145,6.145,0,0,1,5.95,6.31m-2.751,0a3.217,3.217,0,1,0-3.2,3.56,3.4,3.4,0,0,0,3.2-3.56" transform="translate(-98.275 -371.206)" fill="#fff"/>
    <path id="Path_314" data-name="Path 314" d="M196.526,461.982v2.762h-3.621v9.881H190.18V461.982Z" transform="translate(-152.8 -371.18)" fill="#fff"/>
    <path id="Path_315" data-name="Path 315" d="M227.13,465.5v8.882h-2.751v-.523a4.7,4.7,0,0,1-2.516.754,4.418,4.418,0,1,1,0-8.835h2.516V465.5a.765.765,0,0,0-.764-.764h-1.752v-2.75h1.752a3.518,3.518,0,0,1,3.515,3.514m-2.8,3.026h-2.463a1.668,1.668,0,0,0,0,3.335c1.652,0,2.248-1.914,2.463-3.335" transform="translate(-174.706 -371.18)" fill="#fff"/>
    <path id="Path_316" data-name="Path 316" d="M277.784,511.878A1.583,1.583,0,1,1,276.2,510.3a1.584,1.584,0,0,1,1.582,1.582" transform="translate(-220.643 -409.997)" fill="#fff"/>
    <path id="Path_317" data-name="Path 317" d="M306.171,473.253a5.257,5.257,0,0,1-4.043,1.527,5.062,5.062,0,0,1-3.759-1.412,4.573,4.573,0,0,1-1.288-3.255l2.562.032a2.033,2.033,0,0,0,.55,1.421,2.624,2.624,0,0,0,1.935.651,2.671,2.671,0,0,0,2.232-.784.443.443,0,0,0-.147-.669,16.266,16.266,0,0,0-2.411-.834l-.472-.133c-2.21-.646-4.25-1.554-4.25-3.814a3.418,3.418,0,0,1,1.077-2.37,5.446,5.446,0,0,1,3.9-1.444h.018a5.03,5.03,0,0,1,3.915,1.508,4.674,4.674,0,0,1,1.123,3.182h0v.292h-2.567v-.3a2.172,2.172,0,0,0-.477-1.476,2.627,2.627,0,0,0-2-.646h-.014c-1.806,0-2.226.985-2.19,1.251s.027.714,2.186,1.352l.458.133c2.109.6,4.5,1.288,4.648,3.328a3.4,3.4,0,0,1-.986,2.457" transform="translate(-238.689 -371.33)" fill="#fff"/>
    <path id="Path_318" data-name="Path 318" d="M360.455,461.156v2.75h-1.093a3.549,3.549,0,0,1-3.545-3.545V448.62h2.75v3.332h1.807V454.7h-1.807v5.658a.8.8,0,0,0,.795.795Z" transform="translate(-285.881 -360.444)" fill="#fff"/>
    <path id="Path_319" data-name="Path 319" d="M395.222,468.325a5.96,5.96,0,1,1-5.95-6.31,6.145,6.145,0,0,1,5.95,6.31m-2.75,0a3.217,3.217,0,1,0-3.2,3.56,3.4,3.4,0,0,0,3.2-3.56" transform="translate(-307.981 -371.206)" fill="#fff"/>
    <path id="Path_320" data-name="Path 320" d="M457.533,461.982v2.762h-3.621v9.881h-2.726V461.982Z" transform="translate(-362.506 -371.18)" fill="#fff"/>
    <path id="Path_321" data-name="Path 321" d="M488.142,470.035a3.34,3.34,0,0,0,3.167,2.8,3.178,3.178,0,0,0,2.746-1.682h2.856a5.943,5.943,0,0,1-5.6,4.318,6.263,6.263,0,0,1,0-12.5,5.943,5.943,0,0,1,5.6,4.323,6.512,6.512,0,0,1,.289,1.93,6.089,6.089,0,0,1-.055.821Zm5.913-2.75a3.078,3.078,0,0,0-5.491,0Z" transform="translate(-390.01 -371.967)" fill="#fff"/>
    <path id="Path_322" data-name="Path 322" d="M75.942,12.251,72.344,0H35.59l-3.6,12.252H0V84.207H107.934V12.251Z" transform="translate(0 0.001)" fill="#fff"/>
    <path id="Path_323" data-name="Path 323" d="M59.141,83.7v0c-14.422,0-29.554,20.786-38.816,35a52.375,52.375,0,0,1-7.036-2.5,64.5,64.5,0,0,0,1.938-11.712h-1.5a14.634,14.634,0,0,1-3.335,8.6A15.011,15.011,0,0,1,0,118.226v19.127A17.6,17.6,0,0,0,4.473,134.9a18.379,18.379,0,0,0,6.06-8.312c3.7,8.865,16.315,12.04,29.137,12.04,23.984,0,37.952-7.542,37.952-28.314,0-12.173-5.384-26.607-18.482-26.607M22.151,119.31h0c12.695-15.283,29.549-17.855,35.106-17.855,9.364,0,17.827,6.031,17.827,12.646,0,5.954-32,9.259-52.934,5.21" transform="translate(0 -67.25)" fill="#0d2436"/>
    <rect id="Rectangle_75" data-name="Rectangle 75" width="10.118" height="3.605" transform="translate(91.167 5.707)" fill="#fff"/>
  </g>
</svg>
