<svg id="Icon_Thumbs" xmlns="http://www.w3.org/2000/svg" width="40" height="40" viewBox="0 0 40 40">
  <rect id="Base" width="40" height="40" fill="none"/>
  <path id="Path" d="M0,11.659A23.4,23.4,0,0,0,4.039,1.141.984.984,0,0,1,4.726.336c3.71-1.144,5.819.674,5.784,4.821-.007.8-.044,1.52-.123,2.615-.177,2.444-.163,3.111.111,3.56.264.431,1.121.579,3.147.2.639-.121,1.281-.258,1.991-.423.314-.073,2.572-.622,3.15-.746a9.642,9.642,0,0,1,2.587-.295c1.883.115,2.882,1.323,3.054,3.638a58.694,58.694,0,0,1-1.572,15.281c-.958,3.082-2.628,4.245-6.636,4.316q-3.866.068-11.911,0a9.564,9.564,0,0,1-3.718-.791,4.835,4.835,0,0,0,.484-2.114V14.706A4.845,4.845,0,0,0,0,11.659Z" transform="translate(12.181 3.333)" fill="blue"/>
  <path id="Path-2" data-name="Path" d="M2.977,0A2.959,2.959,0,0,0,0,2.941V18.627a2.959,2.959,0,0,0,2.977,2.941H4.961a2.959,2.959,0,0,0,2.977-2.941V2.941A2.959,2.959,0,0,0,4.961,0Z" transform="translate(3.333 15.098)" fill="#b4ccef"/>
</svg>
