<svg id="Workflow" xmlns="http://www.w3.org/2000/svg" width="40" height="40" viewBox="0 0 40 40">
  <rect id="Base" width="40" height="40" fill="none"/>
  <path id="path" d="M14.634,30.6,11.46,27.429a1.192,1.192,0,0,1,0-1.684l3.174-3.174a1.19,1.19,0,1,1,1.684,1.683L15.176,25.4h7.84v2.381h-7.84l1.142,1.142A1.191,1.191,0,1,1,14.634,30.6ZM3.174,23.016v-7.84L2.032,16.318A1.191,1.191,0,0,1,.348,14.634L3.524,11.46a1.191,1.191,0,0,1,1.683,0l3.175,3.174A1.191,1.191,0,0,1,6.7,16.318L5.556,15.176v7.84Zm22.571-3.524-3.174-3.174a1.19,1.19,0,1,1,1.683-1.684L25.4,15.777V7.936h2.381v7.841l1.142-1.143A1.191,1.191,0,1,1,30.6,16.318l-3.174,3.174a1.19,1.19,0,0,1-1.684,0ZM14.634,8.382a1.192,1.192,0,0,1,0-1.684l1.143-1.142H7.936V3.174h7.841L14.634,2.032A1.191,1.191,0,1,1,16.318.348l3.174,3.175a1.189,1.189,0,0,1,0,1.683L16.318,8.382a1.192,1.192,0,0,1-1.684,0Z" transform="translate(4.524 4.524)" fill="#b4ccef"/>
  <path id="path-2" data-name="path" d="M24.6,33.333a2.381,2.381,0,0,1-2.381-2.381V24.6A2.382,2.382,0,0,1,24.6,22.222h6.35A2.381,2.381,0,0,1,33.333,24.6v6.35a2.38,2.38,0,0,1-2.381,2.381Zm-22.222,0A2.38,2.38,0,0,1,0,30.953V24.6a2.381,2.381,0,0,1,2.381-2.381H8.73A2.382,2.382,0,0,1,11.111,24.6v6.35A2.381,2.381,0,0,1,8.73,33.333ZM24.6,11.111A2.382,2.382,0,0,1,22.222,8.73V2.381A2.381,2.381,0,0,1,24.6,0h6.35a2.38,2.38,0,0,1,2.381,2.381V8.73a2.381,2.381,0,0,1-2.381,2.381Zm-22.222,0A2.381,2.381,0,0,1,0,8.73V2.381A2.381,2.381,0,0,1,2.381,0H8.73a2.381,2.381,0,0,1,2.381,2.381V8.73A2.382,2.382,0,0,1,8.73,11.111Z" transform="translate(3.333 3.333)" fill="blue"/>
</svg>
